<?xml version="1.0" encoding="utf-8"?>
<!-- Generator: Adobe Illustrator 24.1.2, SVG Export Plug-In . SVG Version: 6.00 Build 0)  -->
<svg version="1.1" id="Layer_1" xmlns="http://www.w3.org/2000/svg" xmlns:xlink="http://www.w3.org/1999/xlink" x="0px" y="0px"
	 width="300px" height="150px" viewBox="0 0 300 150" style="enable-background:new 0 0 300 150;" xml:space="preserve">
<style type="text/css">
	.st0{fill:#51A547;}
	.st1{fill:#231F20;}
	.st2{fill:#4DB4D3;}
	.st3{fill:#599746;}
	.st4{fill:#DA1F27;}
</style>
<g>
	<g>
		<path class="st0" d="M166.1,96.9c-1.6,0-3.1-0.3-4.4-0.8c-1.3-0.6-2.4-1.3-3.3-2.3c-0.9-0.9-1.6-2-2.1-3.3
			c-0.5-1.2-0.7-2.5-0.7-3.9c0-1.4,0.2-2.7,0.7-3.9c0.5-1.2,1.2-2.3,2.1-3.3c0.9-0.9,2-1.7,3.3-2.3c1.3-0.6,2.7-0.8,4.4-0.8
			c1.6,0,3.1,0.3,4.3,0.8c1.3,0.6,2.4,1.3,3.3,2.3c0.9,0.9,1.6,2,2.1,3.3c0.5,1.2,0.7,2.5,0.7,3.9c0,1.4-0.2,2.7-0.7,3.9
			c-0.5,1.2-1.2,2.3-2,3.3c-0.9,0.9-2,1.7-3.3,2.3C169.2,96.6,167.7,96.9,166.1,96.9 M160.9,86.6c0,0.9,0.1,1.7,0.4,2.4
			c0.3,0.7,0.6,1.3,1.1,1.9c0.5,0.5,1,0.9,1.6,1.2c0.6,0.3,1.3,0.4,2,0.4c0.7,0,1.4-0.1,2-0.4c0.6-0.3,1.2-0.7,1.6-1.2
			c0.5-0.5,0.8-1.2,1.1-1.9c0.3-0.7,0.4-1.5,0.4-2.4c0-0.9-0.1-1.7-0.4-2.4c-0.3-0.7-0.6-1.4-1.1-1.9c-0.5-0.5-1-0.9-1.6-1.2
			c-0.6-0.3-1.3-0.4-2-0.4c-0.7,0-1.4,0.2-2,0.5c-0.6,0.3-1.2,0.7-1.6,1.2c-0.5,0.5-0.8,1.2-1.1,1.9C161.1,85,160.9,85.8,160.9,86.6
			"/>
		<path class="st1" d="M180.8,96.5V79.2h-2.6v-3.9h2.6v-1.2c0-2.5,0.6-4.4,1.8-5.9c1.2-1.4,2.8-2.2,4.8-2.2c1.6,0,3.2,0.4,4.9,1.2
			l-1,3.8c-0.4-0.2-0.8-0.4-1.3-0.5c-0.5-0.1-1-0.2-1.4-0.2c-1.8,0-2.6,1.2-2.6,3.6v1.4h4.8v3.9h-4.8v17.3H180.8z"/>
		<path class="st1" d="M221.2,96.9c-1.7,0-3.3-0.3-4.9-0.8c-1.6-0.5-3-1.3-4.1-2.3l1.9-3.2c1.2,0.9,2.4,1.5,3.5,1.9
			c1.1,0.4,2.3,0.7,3.4,0.7c1,0,1.8-0.2,2.4-0.6c0.6-0.4,0.9-0.9,0.9-1.6c0-0.7-0.3-1.2-1-1.6c-0.7-0.3-1.8-0.7-3.3-1.1
			c-1.3-0.4-2.4-0.7-3.3-1c-0.9-0.3-1.6-0.7-2.2-1.1c-0.6-0.4-1-0.9-1.2-1.4c-0.3-0.5-0.4-1.2-0.4-2c0-1,0.2-1.9,0.6-2.7
			c0.4-0.8,0.9-1.5,1.6-2.1c0.7-0.6,1.5-1,2.5-1.3c0.9-0.3,2-0.5,3.1-0.5c1.5,0,2.9,0.2,4.2,0.6c1.3,0.4,2.5,1.1,3.6,2.1l-2,3.1
			c-1-0.8-2-1.3-2.9-1.7c-0.9-0.4-1.9-0.5-2.8-0.5c-0.9,0-1.6,0.2-2.2,0.5c-0.6,0.4-0.9,0.9-0.9,1.7c0,0.4,0.1,0.6,0.2,0.9
			c0.1,0.2,0.4,0.4,0.7,0.6c0.3,0.2,0.7,0.3,1.2,0.5c0.5,0.2,1.1,0.3,1.8,0.5c1.4,0.4,2.5,0.7,3.5,1.1c1,0.4,1.8,0.8,2.4,1.2
			c0.6,0.5,1.1,1,1.4,1.6c0.3,0.6,0.4,1.3,0.4,2.1c0,1.9-0.7,3.5-2.2,4.6C225.6,96.3,223.7,96.9,221.2,96.9"/>
		<path class="st1" d="M244.4,95.5c-0.7,0.3-1.5,0.6-2.5,0.9c-1,0.3-2,0.5-3.1,0.5c-0.7,0-1.4-0.1-2-0.3c-0.6-0.2-1.2-0.5-1.6-0.9
			c-0.5-0.4-0.8-0.9-1.1-1.5c-0.3-0.6-0.4-1.4-0.4-2.3V79.3H231v-3.9h2.6v-7.6h5.1v7.6h4.2v3.9h-4.2v10.9c0,0.7,0.2,1.2,0.5,1.5
			c0.4,0.3,0.8,0.4,1.3,0.4c0.5,0,1-0.1,1.6-0.3c0.5-0.2,0.9-0.3,1.2-0.5L244.4,95.5z"/>
		<path class="st1" d="M275.1,96.9c-1.7,0-3.3-0.3-4.9-0.8c-1.6-0.5-3-1.3-4.1-2.3l1.9-3.2c1.2,0.9,2.4,1.5,3.5,1.9
			c1.1,0.4,2.3,0.7,3.4,0.7c1,0,1.8-0.2,2.4-0.6c0.6-0.4,0.9-0.9,0.9-1.6c0-0.7-0.3-1.2-1-1.6c-0.7-0.3-1.8-0.7-3.3-1.1
			c-1.3-0.4-2.4-0.7-3.3-1c-0.9-0.3-1.6-0.7-2.2-1.1c-0.6-0.4-1-0.9-1.2-1.4c-0.3-0.5-0.4-1.2-0.4-2c0-1,0.2-1.9,0.6-2.7
			c0.4-0.8,0.9-1.5,1.6-2.1c0.7-0.6,1.5-1,2.5-1.3c0.9-0.3,2-0.5,3.1-0.5c1.5,0,2.9,0.2,4.2,0.6c1.3,0.4,2.5,1.1,3.6,2.1l-2,3.1
			c-1-0.8-2-1.3-2.9-1.7c-0.9-0.4-1.9-0.5-2.8-0.5c-0.9,0-1.6,0.2-2.2,0.5c-0.6,0.4-0.9,0.9-0.9,1.7c0,0.4,0.1,0.6,0.2,0.9
			c0.1,0.2,0.4,0.4,0.7,0.6c0.3,0.2,0.7,0.3,1.2,0.5c0.5,0.2,1.1,0.3,1.8,0.5c1.4,0.4,2.5,0.7,3.5,1.1c1,0.4,1.8,0.8,2.4,1.2
			c0.6,0.5,1.1,1,1.4,1.6c0.3,0.6,0.4,1.3,0.4,2.1c0,1.9-0.7,3.5-2.2,4.6C279.5,96.3,277.6,96.9,275.1,96.9"/>
		<path class="st0" d="M125.3,92.1c-0.5,0.3-1.9,1-3.7,1.1c-0.7,0-1.3-0.1-1.9-0.3c-0.6-0.2-1.1-0.6-1.6-1c-0.5-0.4-0.9-0.9-1.2-1.6
			c-0.3-0.6-0.5-1.3-0.6-2.1h15.3c0.1-0.2,0.1-0.5,0.1-0.8c0-0.3,0-0.6,0-0.9c0-1.3-0.2-2.6-0.7-3.9c-0.5-1.2-1.2-2.3-2-3.3
			c-0.9-0.9-2-1.7-3.3-2.2c-1.3-0.6-2.7-0.8-4.3-0.8c-1.6,0-3.1,0.3-4.4,0.8c-1.3,0.6-2.4,1.3-3.3,2.3c-0.9,0.9-1.6,2-2.1,3.3
			c-0.5,1.2-0.7,2.6-0.7,4c0,1.4,0.2,2.7,0.7,3.9c0.5,1.2,1.2,2.3,2.1,3.3c0.9,0.9,2,1.7,3.3,2.2c1.3,0.5,2.7,0.8,4.3,0.8
			c2,0,3.7-0.4,5.1-1.1L125.3,92.1z M116.8,82.9c0.3-0.6,0.7-1.1,1.1-1.6c0.5-0.4,1-0.8,1.6-1c0.6-0.2,1.2-0.4,1.9-0.4
			c1.4,0,2.6,0.4,3.5,1.3c1,0.9,1.5,2.1,1.6,3.6h-10.3C116.3,84.2,116.5,83.5,116.8,82.9"/>
		<path class="st0" d="M145.2,92.6c-0.7,0.1-1.5,0-2.1-0.2c-0.7-0.2-1.3-0.6-1.8-1.1c-0.5-0.5-1-1.1-1.4-1.8
			c-0.3-0.7-0.6-1.5-0.7-2.4c-0.1-0.9-0.1-1.8,0.1-2.6c0.2-0.8,0.5-1.4,0.9-2c0.4-0.6,1-1.2,1.6-1.5c0.6-0.4,1.4-0.6,2.1-0.7
			c0.9-0.1,1.8,0,2.6,0.3c0.5,0.2,1.2,0.6,1.8,1l2-3.9c-0.4-0.2-0.7-0.4-1.1-0.6c-1.6-0.8-3.5-1.1-5.7-0.8c-1.6,0.2-3,0.6-4.2,1.3
			c-1.2,0.7-2.2,1.5-3.1,2.5c-0.8,1-1.4,2.2-1.8,3.4c-0.4,1.3-0.5,2.6-0.3,4c0.1,1.4,0.5,2.6,1.1,3.8c0.6,1.2,1.4,2.2,2.4,3.1
			c1,0.9,2.2,1.5,3.5,1.9c1.3,0.4,2.8,0.6,4.4,0.4c2.2-0.2,3.6-0.7,5.1-1.8c1.9-1.4,3-3,3.1-5.3l-5.1,0.1
			C148.6,91,147.8,92.4,145.2,92.6"/>
		<path class="st1" d="M205,92.1c-0.5,0.3-1.9,1-3.7,1.1c-0.7,0-1.3-0.1-1.9-0.3c-0.6-0.2-1.1-0.6-1.6-1c-0.5-0.4-0.9-0.9-1.2-1.6
			c-0.3-0.6-0.5-1.3-0.6-2.1h15.3c0.1-0.2,0.1-0.5,0.1-0.8c0-0.3,0-0.6,0-0.9c0-1.3-0.2-2.6-0.7-3.9c-0.5-1.2-1.1-2.3-2-3.3
			c-0.9-0.9-2-1.7-3.3-2.2c-1.3-0.6-2.7-0.8-4.3-0.8c-1.6,0-3.1,0.3-4.4,0.8c-1.3,0.6-2.4,1.3-3.3,2.3c-0.9,0.9-1.6,2-2.1,3.3
			c-0.5,1.2-0.7,2.6-0.7,4c0,1.4,0.2,2.7,0.7,3.9c0.5,1.2,1.2,2.3,2.1,3.3c0.9,0.9,2,1.7,3.3,2.2c1.3,0.5,2.7,0.8,4.3,0.8
			c2,0,3.7-0.4,5.1-1.1L205,92.1z M196.5,82.9c0.3-0.6,0.7-1.1,1.1-1.6c0.5-0.4,1-0.8,1.6-1c0.6-0.2,1.2-0.4,1.9-0.4
			c1.4,0,2.6,0.4,3.5,1.3c1,0.9,1.5,2.1,1.6,3.6h-10.3C196,84.2,196.2,83.5,196.5,82.9"/>
		<path class="st1" d="M258.9,92.1c-0.5,0.3-1.9,1-3.7,1.1c-0.7,0-1.3-0.1-1.9-0.3c-0.6-0.2-1.1-0.6-1.6-1c-0.5-0.4-0.9-0.9-1.2-1.6
			c-0.3-0.6-0.5-1.3-0.6-2.1h15.3c0.1-0.2,0.1-0.5,0.1-0.8c0-0.3,0-0.6,0-0.9c0-1.3-0.2-2.6-0.7-3.9c-0.5-1.2-1.1-2.3-2-3.3
			c-0.9-0.9-2-1.7-3.3-2.2c-1.3-0.6-2.7-0.8-4.3-0.8c-1.6,0-3.1,0.3-4.4,0.8c-1.3,0.6-2.4,1.3-3.3,2.3c-0.9,0.9-1.6,2-2.1,3.3
			c-0.5,1.2-0.7,2.6-0.7,4c0,1.4,0.2,2.7,0.7,3.9c0.5,1.2,1.2,2.3,2.1,3.3c0.9,0.9,2,1.7,3.3,2.2c1.3,0.5,2.7,0.8,4.3,0.8
			c2,0,3.7-0.4,5.1-1.1L258.9,92.1z M250.4,82.9c0.3-0.6,0.7-1.1,1.1-1.6c0.5-0.4,1-0.8,1.6-1c0.6-0.2,1.2-0.4,1.9-0.4
			c1.4,0,2.6,0.4,3.5,1.3c1,0.9,1.5,2.1,1.6,3.6h-10.3C249.9,84.2,250.1,83.5,250.4,82.9"/>
	</g>
	<g>
		<path class="st2" d="M101.5,87.4c0,11.6-9.7,21.7-21.3,21.7c-11.6,0-21.4-9-21.4-20.6s9.8-21.5,21.4-21.5
			C91.9,66.9,101.5,75.7,101.5,87.4"/>
		<path class="st3" d="M65.6,103.5c0.5-1.5,1.8-2.5,2.2-4.1c1.2-4.5-1.6-5.4-4.9-4.4c-3,1-3.4,1.5-2.5,3c1.3,2.1,3.9,6.2,5.9,6.3"/>
		<path class="st3" d="M73.8,81.5c0,1.8,1.4,2.4,3.7,0.8c0.1-0.1,0.4-2.1,0.6-2.4c0.5-0.6,1.6-0.8,2.3-1c3.9-1.2,8.9,3.3,5.9,7
			c-1.6,2-5.1-0.1-7.4,0.6c-2.5,0.7-3.1,5.2-2.5,7c0.7,1.8,2.7,2.3,4,2.2c2-0.2,1.9,4.4,2.9,7c0.9,2.1,3.8,3.6,4.9,0.4
			c0.8-2.2-0.5-2.5,0.4-4.7c0.4-0.8,0.6-1.7,1.1-2.4c0.4-0.6,1.7-1.4,1.7-2.3c0.1-2.1-4-2.9-3.4-5.9c2.4-2.5,5.4,3.7,7.2,2.2
			c3-2.5-2.3-3.3-1.9-5.6c1.3,0,6.4,0.4,6.2-0.7c-0.2-1.3-3-6.1-4.2-7.3c-8.3-8.3-13.7-4-13.3-3.5c-0.4,2.2,5.3,0,5.3,1.9
			c0.1,1.5-5.8,0.7-7,0.7c-2,0.1-2.9-0.2-3.4,1.6c-0.2,0.6,0.1,1.5-0.3,2C76.4,79.7,73.8,81.5,73.8,81.5"/>
		<path class="st3" d="M60.1,89.4c1.8-2.6,3-2.4,4.1-5.5c0.4-1.1,0.5-4.4,3.1-6.6c0.6-0.5-1.9-1.1-1.9-1.7c-3.2,0-8,12.3-5.2,14.6"
			/>
		<path class="st1" d="M100.6,83.8C100.6,83.8,100.6,83.8,100.6,83.8c0-0.1-0.1-0.1-0.1-0.2c0,0,0,0,0,0l0,0
			c-0.1-0.2-0.3-0.3-0.6-0.3c-6.3,0.5-6.6,0.6-6.7,0.7c-0.2,0.1-0.4,0.3-0.4,0.5c-0.1,0.4-0.1,0.7,3.2,3.6l-2.6,2.5
			c-1-1.1-3.1-3.4-4.1-3.8c-1.1-0.5-1.6,0-1.8,0.2c-0.3,0.4-0.6,1.1,0.1,2.6c0.8,1.5,2.5,3.6,3.3,4.5c-0.6,0.6-1.7,1.6-2.4,2.9
			c-0.8,1.4-0.7,3.1-0.6,4.5c0,0.7,0.1,1.4,0,1.9c-0.1,0.6-1,1.4-1.6,1.8c-1.4-0.4-3-1-3.3-1.4c-0.3-0.5-1.2-4.3-1.8-7.6
			c-0.1-0.3-0.3-0.5-0.6-0.5c-0.6-0.1-2.4-0.2-3-0.4c-1.3-0.3-2.5-1.6-2-4.3c0.7-3.6,2.7-4.1,3.1-4.1c5,0.7,7.8-0.1,7.9-0.1
			c0.3-0.1,0.5-0.3,0.5-0.6c0-0.1,0.1-2.1-1.7-5.2c-0.8-1.4-2.3-2.2-4.2-2.2h0c-1.3,0-2.4,0.3-2.5,0.4c-0.3,0.1-1.9,0.7-2.1,3.3
			c-0.1,0.1-0.6,0.2-1.1,0.1c-0.3-0.1-0.8-0.2-1-0.7c-0.1-0.2,0.1-0.8,1.8-1.9c0.2-0.1,0.3-0.2,0.4-0.3c0.5-0.4,0.6-1.2,0.7-2.5
			c0-0.3,0.1-0.7,0.1-0.9c0.7-0.2,3.3-0.1,4.6,0c0.6,0,1.2,0,1.6,0c0.2,0,0.3,0,0.5,0c1.3,0,2.7,0,3.5-0.7c0.3-0.3,0.5-0.7,0.4-1.2
			c0-0.4-0.2-0.8-0.5-1.1C87.1,73,86.1,73,85,73.1c-0.6,0-1.3,0.1-1.9,0c-0.3,0-0.9-0.1-0.9-0.5c0-0.3,0.3-0.7,0.6-0.7
			c0.5,0,4.7,0,6.1-0.1c2,1,4.1,2.5,6,4.8l1-0.8c-2.1-2.5-4.4-4.1-6.5-5.2v-0.1c0,0-0.1,0-0.1,0c-3.9-1.9-7.2-2-7.6-2
			c-3.5-0.3-6.8,0.7-6.9,0.7c-0.2,0.1-0.4,0.3-0.5,0.5c-0.2,1.5-0.6,3.3-0.9,3.9c-0.5-0.2-1.6-1.2-2.6-2.4c-0.2-0.2-0.5-0.3-0.8-0.2
			c0,0,0,0-0.1,0l0,0C61.2,74.8,56,85.2,58,95.1c2,9.7,10.7,17.2,20.7,17.7c0.3,0,0.7,0,1,0c9,0,17.6-6,21.1-14.9
			C102.6,93.4,102.5,87.4,100.6,83.8 M73.8,75.1c0.3-0.1,1-0.2,1.7-4.6c0.9-0.2,3.5-0.8,6.1-0.6c0,0,0,0,0.1,0c0,0,1.8,0,4.2,0.7
			c-1.4,0-2.8,0-3.1,0c-1,0-1.8,0.9-1.8,1.9c0,0.8,0.5,1.7,2.1,1.8c0.7,0.1,1.5,0,2.1,0c0.6,0,1.5-0.1,1.7,0.1c0,0,0,0.1,0,0.2
			c0,0.2,0,0.2-0.1,0.2c-0.4,0.4-1.7,0.4-2.5,0.3c-0.2,0-0.3,0-0.5,0c-0.3,0-0.9,0-1.5,0c-3.4-0.1-5-0.1-5.5,0.3
			c-0.4,0.3-0.4,0.9-0.5,1.8c0,0.5-0.1,1.3-0.2,1.6c-0.1,0.1-0.2,0.1-0.3,0.2c-1,0.7-3,2-2.3,3.5c0.6,1.3,2,1.7,3.1,1.4
			c0.8-0.2,1.4-0.6,1.4-1.2c0.1-1.3,0.6-1.9,0.9-2.1l2.5,2.1l-0.4,0.4c-0.1,0.1-0.2,0.3-0.2,0.5c0,0.2,0.1,0.3,0.2,0.4
			c0.2,0.3,0.6,0.3,0.9,0l0.9-0.8c0.1-0.1,0.2-0.3,0.2-0.5v0c0-0.2-0.1-0.4-0.2-0.5l-2.4-2c1.2-0.2,3.1-0.1,4.1,1.5
			c1.1,1.9,1.4,3.3,1.5,4c-1,0.2-3.3,0.4-6.9-0.1c-1.1-0.2-3.7,0.9-4.5,5.1c-0.8,3.9,1.5,5.5,3,5.8c0.6,0.1,1.9,0.3,2.7,0.4
			c0.3,1.8,1.3,6.7,1.9,7.6c0.7,1.1,3.5,1.8,4.4,2c0.2,0,0.4,0,0.5-0.1c0.2-0.1,2.1-1.4,2.4-2.8c0.1-0.6,0.1-1.4,0-2.2
			c-0.1-1.3-0.2-2.8,0.4-3.8c0.9-1.7,2.6-3,2.6-3c0.1-0.1,0.2-0.3,0.2-0.5c0-0.2,0-0.4-0.2-0.5c0,0-2.6-2.9-3.6-4.7
			c-0.3-0.6-0.3-0.9-0.3-1.1c0.1,0,0.2,0,0.4,0.1c0.7,0.3,2.8,2.5,4.1,3.9c0.1,0.1,0.3,0.2,0.4,0.2c0.2,0,0.3-0.1,0.5-0.2l3.6-3.4
			c0.1-0.1,0.2-0.3,0.2-0.5c0-0.2-0.1-0.3-0.2-0.5c-1-0.9-2.1-1.9-2.8-2.6c1.1-0.1,3-0.3,4.8-0.4c0.3,0.5,0.5,1.1,0.6,1.7
			c0.4,1.5,0.7,3.7,0.5,6.3c-0.2,1.7-0.5,3.3-1.1,4.7c-2.9,7.4-9.5,12.6-16.9,13.7c-1.1,0.1-2.1,0.1-3.2,0.1
			c-7.6-0.6-11.5-3.8-12.2-4.5c-0.1-0.7-0.6-3.5,0.4-5.1c1.3-2,1.8-4.3,1.6-5.3c-0.5-2.8-1.6-2.9-3.4-2.9h0h0c-1,0-2.6,0.7-4.1,1.5
			c-0.6,0.3-1.4,0.6-1.8,0.8c-0.5-1.6,0.1-3.4,0.7-4.7c1-2.1,2.4-3.6,3-4l0,0c0.5,0.8,1.4,1.8,1.4,1.8c0.2,0.3,0.6,0.3,0.9,0.1
			c0.3-0.2,0.3-0.6,0.1-0.9l-1.4-1.8c-0.1-0.1-0.1-0.2-0.2-0.3c0,0,0,0,0-0.1c0-0.8,0-3.4,0.7-4.7c0.7-1.3,2.3-2.8,2.4-2.8
			c0.2-0.2,0.3-0.4,0.2-0.6c-0.1-0.2-0.3-0.4-0.5-0.5c-0.4-0.1-1.4-0.4-1.5-0.9c-0.1-0.2,0-0.5,0.2-0.7c1.4-1.2,2.9-2.2,4.6-2.9
			C71.3,73.9,72.8,75.3,73.8,75.1 M64.3,76.9c0.3,0.6,0.8,0.9,1.3,1.2c-0.6,0.6-1.4,1.5-1.9,2.4C63,82,63,84.6,63,85.7
			c-1.1,0.6-2.9,2.7-3.9,5.3C59,85.7,61,80.6,64.3,76.9 M60,96.9c0.5-0.1,1.1-0.4,2.1-0.9c1.2-0.6,2.9-1.3,3.6-1.3h0h0
			c1.6,0,1.8,0,2.1,1.8c0.1,0.6-0.2,2.5-1.5,4.4c-0.9,1.4-0.9,3.4-0.7,4.8C63.1,103.3,61.1,100.2,60,96.9"/>
		<path class="st4" d="M38.6,39.7c-0.4,0-3.3,7.8-3.3,7.8C52.7,55,44.3,79.9,24,73c-0.3-0.1-0.9,0.3-1.1,0.9l-5,10.5l17.6,11.2
			L68,56.7C68,56.7,57.2,39.8,38.6,39.7"/>
		<path class="st1" d="M69,56.4c-0.1-0.3-3.1-7.9-13.3-13.7c-10.3-5.8-16.7-5.4-17-5.4c-0.3,0-0.6,0.2-0.7,0.5l-3.9,10.7
			c-0.1,0.4,0,0.8,0.3,1l8.9,5.4c0,0,0.1,0,0.1,0c0.5,0.2,0.9,0.7,1.1,1.2c0.2,0.5,0.2,1.1-0.1,1.6c-0.5,1.1-1.8,1.7-2.9,1.3
			c0,0,0,0,0,0l-9.1-5.3c-0.4-0.2-0.9-0.1-1.1,0.3c-0.2,0.4-0.1,0.9,0.3,1.1l9.7,5.7l1.1,0.7c0,0,0,0,0,0c1.1,0.6,1.6,1.8,1.1,2.9
			c-0.5,1.1-1.6,1.6-2.7,1.2C30,59,29.9,59,29.9,58.9c-0.1-0.1-0.3-0.1-0.4-0.1c-0.3,0-0.5,0.1-0.7,0.4c-0.2,0.4-0.1,0.9,0.3,1.1
			c0.1,0,8.2,4.9,10.9,6.5c0,0,0.1,0.1,0.2,0.1c1,0.6,1.4,1.9,0.9,2.9c-0.6,1.1-1.8,1.5-2.9,1l-10.7-6.5c-0.4-0.2-0.9-0.1-1.1,0.3
			c-0.2,0.4-0.1,0.9,0.3,1.1l7.5,4.5c0.9,0.7,1.1,2.1,0.3,3.1c-0.8,1-2.1,1.2-3.1,0.5c0,0,0,0-0.1,0l-6.4-3.9
			c-0.2-0.1-0.4-0.2-0.6-0.1c-0.2,0.1-0.4,0.2-0.5,0.4l-6.8,14.5c-0.2,0.4,0,0.8,0.3,1l17.6,11.1c0.1,0.1,0.3,0.1,0.4,0.1
			c0.2,0,0.5-0.1,0.6-0.3l6.3-7.8l-1.2-1L35.1,95L18.7,84.7l6.1-13.1l5.6,3.4c1.6,1.2,4,0.8,5.3-0.9c0.6-0.8,0.8-1.7,0.8-2.6
			l0.9,0.6c0,0,0,0,0,0c1.8,1,4.1,0.2,5.1-1.6c0.6-1.1,0.6-2.4,0.1-3.4c1.1-0.3,2.1-1,2.6-2.2c0.7-1.6,0.2-3.5-1.2-4.6
			c0.9-0.4,1.6-1.1,2-2c0.4-0.9,0.4-1.9,0.1-2.9c-0.3-0.9-1-1.6-1.9-2.1l-8.3-5l3.5-9.6c1.7,0,7.3,0.5,15.6,5.2
			c8.4,4.8,11.6,10.8,12.4,12.5L45.8,81.9l1.2,1l21.8-25.8C69,56.9,69.1,56.6,69,56.4"/>
		<path class="st1" d="M59.8,82.8c-0.4,0-3.5-0.9-4.7-1.6c-2.3-1.5-3-3.8-3.6-4.9c-1.1,1.9-4.4,4.8-5.2,5.7
			c3.3,6.3,9.2,7.2,11.7,7.1L59.8,82.8z"/>
	</g>
</g>
</svg>
