<?xml version="1.0" encoding="utf-8"?>
<!-- Generator: Adobe Illustrator 24.1.2, SVG Export Plug-In . SVG Version: 6.00 Build 0)  -->
<svg version="1.1" id="Capa_1" xmlns="http://www.w3.org/2000/svg" xmlns:xlink="http://www.w3.org/1999/xlink" x="0px" y="0px"
	 width="300px" height="150px" viewBox="0 0 300 150" style="enable-background:new 0 0 300 150;" xml:space="preserve">
<style type="text/css">
	.st0{fill:#010202;}
</style>
<g>
	<path class="st0" d="M121.7,73.1c0-12.4-10-21.9-22.6-21.9C83.7,51.2,75,62.1,75,76.6c0,14.2,8,25.4,24.4,25.4
		c12.4,0,20.6-7.5,21.9-15.9h-11.5c-1.3,3.5-4.6,6.4-10.4,6.4c-9.5,0-12.6-5.7-13.1-12.6h34.8C121.5,77.8,121.7,75.5,121.7,73.1z
		 M86.3,71.8C86.3,64,92.5,60,98.7,60c6.4,0,11.9,4.6,11.9,11.9H86.3z"/>
	<path class="st0" d="M215.4,52.7c-1.5-0.5-2.9-0.7-4.6-0.7c-6.6,0-13,4-15.1,8.4v-7.8h-11.5v48.3h11.5V80c0-12,5.3-17.5,15.1-17.5
		c1.5,0,3.1,0.2,4.6,0.5V52.7z"/>
	<path class="st0" d="M255.6,58.7c-3.6-4.7-9.5-7.3-15.1-7.3c-15,0-25,11.7-25,25.4s10.2,25.4,25,25.4c5.7,0,11.7-2.4,15.1-7.3v6
		h11.5V52.5h-11.5V58.7z M241.2,92.1c-8.6,0-14.2-7.1-14.2-15.3c0-8.4,5.7-15.3,14.2-15.3c8.8,0,14.4,7.1,14.4,15.3
		S249.9,92.1,241.2,92.1z"/>
	<path class="st0" d="M153,91.9L153,91.9c-8.2,0-13.7-6.8-13.7-14.8h-10.9c-0.2,13.1,10.2,24.1,23.5,24.4c0.4,0,0.7,0,1.1,0
		c15.1,0,24.8-11.3,24.8-24.4h-10.9C166.9,85.1,161.4,91.9,153,91.9z"/>
	<polygon class="st0" points="59.3,71.8 37,71.8 37,51.4 25.5,51.4 25.5,101 37,101 37,81.7 59.3,81.7 59.3,101 70.8,101 70.8,51.4 
		59.3,51.4 	"/>
	<g>
		<circle class="st0" cx="138.4" cy="60" r="7.7"/>
		<circle class="st0" cx="167.6" cy="60" r="7.7"/>
	</g>
	<g>
		<path class="st0" d="M279.6,55.8L279.6,55.8c0-1.1-0.9-2-2-1.8h-2.6V59h1.6v-1.3h0.4L278,59h1.8l-0.9-1.6
			C279.3,57,279.6,56.5,279.6,55.8z M277.5,56.5h-0.7V55h0.7l0,0c0.4,0,0.5,0.4,0.5,0.7l0,0C278,56.1,277.8,56.5,277.5,56.5z"/>
		<g>
			<path class="st0" d="M277.3,61.6c-2.9,0-5.1-2.4-5.1-5.1c0-2.7,2.4-5.1,5.1-5.1c2.9,0,5.1,2.4,5.1,5.1
				C282.4,59.2,280.2,61.6,277.3,61.6z M277.3,52.7c-2.2,0-3.8,1.6-3.8,3.8c0,2.2,1.6,3.8,3.8,3.8c2.2,0,3.8-1.6,3.8-3.8
				C281.1,54.3,279.3,52.7,277.3,52.7z"/>
		</g>
	</g>
</g>
</svg>
