<?xml version="1.0" encoding="utf-8"?>
<!-- Generator: Adobe Illustrator 24.1.2, SVG Export Plug-In . SVG Version: 6.00 Build 0)  -->
<svg version="1.1" id="Capa_1" xmlns="http://www.w3.org/2000/svg" xmlns:xlink="http://www.w3.org/1999/xlink" x="0px" y="0px"
	 width="300px" height="150px" viewBox="0 0 300 150" style="enable-background:new 0 0 300 150;" xml:space="preserve">
<style type="text/css">
	.st0{opacity:0.5;fill:#F5AC16;enable-background:new    ;}
	.st1{opacity:0.5;fill:#FECC00;enable-background:new    ;}
	.st2{fill-rule:evenodd;clip-rule:evenodd;}
</style>
<g id="SINSOMBRA">
	<path class="st0" d="M48.6,24.8L45.5,26l-0.8,0.3l-0.8,0.4c-0.4,0.2-0.9,0.4-1.3,0.6l-2,1l-2,1.2l-2.1,1.3l-2.1,1.5l-2.1,1.6
		l-2,1.7l-2,1.9l-1.9,2l-2.1,2.5l-1.9,2.5L21,47l-1.4,2.5l-1.2,2.3c-0.8,1.8-1.5,3.6-2.2,5.5L15.8,59l0,0.1L15,62.5l-0.5,3.1
		l-0.2,2.8l0,2.5l0.1,2.1l0.2,1.8l0.3,1.5l0.3,1.2l1.3,2.3l0.2-0.1c0.1-0.2,0.3-0.4,0.3-0.7l0.2-0.1c0.8,1.9,1.2,4.1,1.8,6l4.1,9.4
		l1.6,2.6l4.7,4.7c0.5-0.1,0.9-0.4,1.4-0.1l5.3,4.1l0.8,0.6l4.5,2.4c1,0.1,1.7,0.1,2.7,0.4l-0.9-0.5l-0.9-0.5l-0.8-0.5l-0.8-0.6
		l-0.8-0.6l-0.8-0.6l-0.8-0.7l-0.8-0.7l-1.4-1.3l-1.3-1.3l-1.3-1.4l-1.2-1.5l-1.2-1.6l-1.1-1.6l-1-1.7L28.3,92l-1.2-2.6l-0.7-1.8
		l-0.6-1.8l-0.5-1.9L24.9,82l-0.3-2c-0.1-1-0.2-2-0.3-3l-0.1-2v-2l0.1-2l0.2-2l0.3-2l0.4-2l0.5-2l0.6-2l0.7-2l0.8-1.9l0.9-1.9l1-1.8
		l1.1-1.7l1.2-1.7l1.2-1.6l1.3-1.5l1.4-1.5l1.5-1.4l1.5-1.3l1.6-1.3l1.6-1.2l1.7-1.1l1.7-1l1.8-0.9l1.9-0.9l1.9-0.8l1.9-0.7l1.9-0.6
		l2-0.5l2-0.4l2-0.3l2-0.2l2.1-0.1H67l2.1,0.1l2.1,0.2l2.1,0.3l2.1,0.4l2.1,0.5l2,0.6l2.2,0.8l2.1,0.9l2,1l1.9,1l1.8,1.1l1.7,1.2
		l1.6,1.2l1.5,1.3l1.7,1.6l1.6,1.6l1.5,1.6l1.3,1.7l1.2,1.7l1.1,1.7l1,1.7l0.9,1.6l0.6,1.3l0.6,1.2l0.5,1.2l0.5,1.2l0.4,1.2l0.4,1.1
		l0.3,1.1l0.3,1l0.1,0.4l0.2,0.6c0.5,2,0.9,4.1,1,6.1l0.2,5.4l0,0.2l0.1-1l0-0.7l0-0.7l0-0.7v-0.7V74c0-0.4,0-0.7,0-1.1l-0.1-2.1
		l-0.3-2.1l-0.4-2.1l-0.4-2.1l-0.5-2l-0.6-1.9l-0.6-1.8l-0.7-1.6l-0.5-1.2l-1-2l-1.1-1.9l-1.2-1.9l-1.3-1.8l-1.3-1.7l-1.4-1.6
		l-1.5-1.6l-1.6-1.5l-1.7-1.4l-1.8-1.4L90.2,38l-1.9-1.2l-2-1.1l-2-1l-2.1-0.9l-2.1-0.8L78,32.4l-2.2-0.6l-2.2-0.4l-2.2-0.3
		l-2.2-0.2L67,30.8h-2.2l-2.2,0.1l-2.1,0.2l-2.1,0.3l-2.1,0.4l-2.1,0.5l-2,0.6l-2,0.7l-2,0.8l-2,0.9l-1.8,0.9l-1.8,1L41,38.4
		c-0.9,0.6-1.7,1.2-2.5,1.8l-1.6,1.3l-1.6,1.4c-0.8,0.8-1.5,1.5-2.3,2.3l-1.3,1.5l-1.3,1.6l-1.2,1.7l-1.2,1.8L26.8,54l-1,2L24.9,58
		L24,60.2l-0.7,2l-0.6,2.1l-0.5,2.1l-0.4,2.1l-0.3,2.1l-0.2,2.2L21.4,75l0,2.2l0.1,1.1l0-0.1c-0.1-0.3-0.1-0.7-0.2-1l-0.2-4.3
		l0.1-2.1c0.1-1.2,0.2-2.4,0.4-3.6l0.5-2.7c0.4-1.6,0.8-3,1.3-4.6l1.1-2.8l0.9-1.9l1-1.9l1.1-1.9l1.2-1.9l1.4-1.9
		c0.7-0.9,1.5-1.8,2.3-2.7l2.2-2.2l1.5-1.4l1.6-1.4l1.7-1.3l1.8-1.2l1.9-1.1c1-0.5,2-1.1,3-1.6l2.9-1.3l2-0.7l2-0.6l2.1-0.5l2.1-0.5
		l2.2-0.4c1.1-0.1,2.2-0.2,3.3-0.3l2.2-0.1l2.2,0l2.2,0.1l2.2,0.2l2.2,0.4l2.2,0.4l2.2,0.6l2.2,0.7l2.2,0.8l2.1,0.9l2,1l2,1.1
		l1.9,1.2l1.8,1.3l1.7,1.4l1.6,1.4l1.6,1.6l1.5,1.6l1.4,1.7l1.4,1.7l1.3,1.8l1.2,1.8l1,1.8l1,1.9l1,2.1l0.8,2.1l0.7,2.1l0.6,2.1
		l0.5,2.1l0.4,2.1l0.3,2.1l0.2,2l0.1,2.7l0,2.6l-0.2,2.5l-0.3,2.4l-0.4,2.2l-0.5,2.1l-0.5,2l-0.5,1.8l-0.6,1.6l-0.5,1.4l-0.5,1.3
		c-0.5,1-0.9,2.1-1.4,3.1l-0.3,0.7l3.3-6.6l0.5-1.4l0.6-1.9c0.3-1,0.6-2,0.8-3l0.5-2.2l0.4-2.3l0.3-2.4l0.1-2.5c0-1.3,0-2.6-0.1-4
		l-0.2-2.1c-0.1-1.1-0.3-2.1-0.4-3.2l-0.4-2.2l-0.5-2.2l-0.7-2.2l-0.8-2.2c-0.4-1.1-0.9-2.2-1.4-3.3l-1-1.9l-1.1-1.9l-1.2-1.9
		l-1.3-1.8l-1.4-1.8l-1.5-1.7L98,42.8l-1.7-1.6l-1.7-1.5l-1.8-1.4L91.1,37l-1.9-1.2l-2-1.1L85,33.6l-2.2-1l-2.2-0.9L78.4,31
		l-2.3-0.6l-2.3-0.5l-2.3-0.4l-2.3-0.3L67,29.1l-2.2,0l-2.2,0.1l-2.3,0.2L58,29.7l-2.2,0.4l-2.2,0.5l-2.1,0.6l-2.1,0.7l-2,0.8
		l-1.9,0.9l-2.1,1.1l-2,1.2L39.5,37l-1.8,1.3L36,39.7l-1.6,1.4l-1.5,1.4L31.4,44l-1.8,2.1l-1.6,2.1l-1.4,2.1l-1.2,2l-1.1,2L23.5,56
		l-0.8,1.8l-0.6,1.6l-1.8,6.2l0,0l0.1-0.7l0.1-0.7l0.2-0.7l0.2-0.8l0.2-0.8l0.2-0.8l0.3-0.9l0.3-0.9l0.7-1.9l0.8-1.9l0.9-2l1.1-2
		l1.2-2l1.4-2l1.5-2l1.6-1.9l2.2-2.3l1.6-1.5l1.7-1.4l1.8-1.4l1.9-1.3l1.9-1.2c1-0.6,2-1.1,3.1-1.6l2-0.9l2.1-0.8l2.1-0.7l2.2-0.6
		l2.2-0.5l2.2-0.4l2.2-0.3l2.2-0.2l2.4-0.1l2.4,0l2.3,0.1l2.3,0.3l2.3,0.4l2.3,0.5l2.2,0.6l2.2,0.7l2.5,1l2.4,1.1l2.2,1.1l2.1,1.2
		l1.9,1.3l1.8,1.3l1.6,1.3l1.5,1.3l0.9,0.9l0.9,0.9l0.8,0.9l0.8,0.8l0.7,0.8l0.6,0.8l0.6,0.7l0.5,0.7l-0.5-0.7l-0.5-0.7l-0.6-0.8
		l-0.7-0.8l-0.8-0.9L99,42.3l-0.9-0.9l-1-0.9l-1.5-1.3c-0.8-0.7-1.6-1.3-2.5-2l-1.9-1.3l-2-1.3l-2.2-1.2l-2.3-1.1
		c-1.2-0.5-2.5-1-3.7-1.5l-2.2-0.7l-2.3-0.6l-2.3-0.5l-2.3-0.4l-2.3-0.3l-2.4-0.2l-2.3,0l-2.3,0.1l-2.4,0.2l-2.3,0.3l-2.3,0.4
		l-2.2,0.5l-2.2,0.6L49,30.7l-2,0.8L45,32.3l-2.4,1.2l-2.3,1.3l-2.1,1.4l-1.9,1.4L34.5,39l-1.6,1.4l-1.4,1.3l-1.2,1.2l-0.7,0.8
		l-0.7,0.7c-0.7,0.8-1.4,1.7-2.1,2.5l-0.2,0.2l0.6-0.8c0.2-0.3,0.4-0.6,0.6-0.8l0.4-0.5l0.4-0.5l0.5-0.5l0.5-0.6l0.5-0.5l1.4-1.5
		l1.6-1.5l1.7-1.5l1.8-1.4l1.9-1.4l2-1.3l2.1-1.2l2.2-1.1l2-0.9l2.1-0.8l2.2-0.7l2.2-0.6l2.3-0.5l2.3-0.4l2.3-0.4l2.3-0.2l2.4-0.1
		l2.4,0l2.4,0.2l2.4,0.3l2.4,0.4l2.3,0.5l2.3,0.6l2.2,0.7l1.5,0.6l1.4,0.6l1.4,0.6c2.1,1,4.2,2.2,6.2,3.5l0.6,0.4l0.7,0.5l0.7,0.5
		l0.7,0.5l0.7,0.6l0.8,0.6l0.8,0.7l0.8,0.7l1.5,1.5c0.8,0.8,1.5,1.6,2.3,2.5l1.5,1.8l1.4,1.9l1.3,2l1.2,2.1c0.6,1.1,1.1,2.1,1.7,3.2
		l1.1,2.6l1,2.6l0.8,2.5l0.6,2.4l0.5,2.3l0.4,2.1c0.2,1.2,0.3,2.3,0.4,3.5l0.2,2.4l0,0.2l0,0.2l0,2.3l-0.1,1.8l-0.2,2l-0.3,2.1
		l-0.4,2.2l-0.5,2.4c-0.3,1.3-0.7,2.5-1.1,3.7l-0.8,2.3l-1,2.3l-1.1,2.2L107,101l-1.3,2.1l-1.4,2.1l-1.5,2l-1.6,1.9l-1.8,2l-1.9,1.8
		l-1.9,1.7l-2,1.5l-2,1.4l-1.9,1.2l-1.9,1.1l-1.8,0.9l-1.9,0.9l-1.8,0.7c-0.9,0.4-1.9,0.7-2.8,1.1l0.3-0.1l1.1-0.4l1.2-0.4l1.3-0.5
		l1.3-0.6l1.4-0.6l1.8-0.9l1.9-1l1.9-1.2l2-1.3l2-1.5l2-1.7l2-1.8l1.9-2l2.3-2.6l1.4-1.9l1.4-2l1.3-2.1l1.2-2.3l1.1-2.4
		c0.5-1.2,1-2.5,1.5-3.7l0.8-2.4l0.7-2.4l0.5-2.4l0.4-2.5l0.3-2.5l0.2-2.5l0-2.5l-0.1-2.5l-0.2-2.5l-0.3-2.4l-0.4-2.4l-0.5-2.3
		l-0.7-2.3l-0.8-2.3l-0.9-2.2l-0.9-2.1l-1.1-2.2l-1.2-2.2l-1.3-2.1l-1.4-2l-1.5-1.9l-1.5-1.8l-1.6-1.7l-1.6-1.6l-2.1-1.9l-2.2-1.7
		l-2.2-1.5L90,32.4l-2.1-1.2l-2.1-1l-2-0.9l-1.9-0.7l-1.5-0.5l-1.4-0.4l-1.3-0.4L76.4,27l-1.1-0.2l-0.9-0.2c-0.5-0.1-1-0.2-1.4-0.3
		l-1.3-0.2L70.5,26l-1.3-0.1l-1.3-0.1l-1.3,0l-1.4,0l-1.4,0l-1.4,0.1L60.1,26l-2.3,0.3l-2.3,0.4l-2.3,0.5L50.8,28l-2.3,0.8l-2.2,0.9
		l-2.1,1l-2.3,1.1L39.7,33l-2.1,1.3l-2,1.4l-1.8,1.5l-1.7,1.5l-1.6,1.5L29,41.7L27.9,43c-2.1,2.4-3.9,5-5.6,7.7l1.9-3.4l0.8-1.2
		l0.9-1.3l1-1.4c0.6-0.7,1.2-1.4,1.8-2.1l1.6-1.7l1.7-1.7l1.8-1.6l1.9-1.5l2-1.4l2-1.3l2.1-1.2l2-1l0.9-0.4l0.9-0.4l0.8-0.3l0.8-0.3
		l0.8-0.3l0.8-0.3l0.7-0.3l0.7-0.2l1.6-0.5l1.6-0.4c3-0.7,6-1.1,9-1.3l2.6-0.1l2.5,0.1l2.5,0.2l2.4,0.3l2.4,0.4l2.4,0.5l2.4,0.7
		l2.4,0.8l2.2,0.8l2.1,0.9l2.1,1l2.1,1.1l2.1,1.2l2,1.4l2,1.5l2,1.6l0.5,0.5l1.4,1.3l1.5,1.5c0.8,0.8,1.5,1.7,2.3,2.6l1.5,1.9
		l1.5,2.1l1.4,2.3c0.7,1.2,1.4,2.5,2,3.8l0.9,2.1l0.9,2.2l0.8,2.2l0.7,2.3l0.6,2.4l0.5,2.5l0.4,2.6l0.2,2.6l0.1,2.4l0,2.5l-0.1,2.5
		l-0.3,2.5l-0.4,2.5l-0.5,2.5l-0.7,2.5l-0.8,2.5l-0.9,2.5l-1.1,2.4l-1.2,2.3l-1.3,2.2l-1.4,2.2l-1.5,2.1l-1.5,2l-1.6,1.9l-1.8,1.9
		l-1.9,1.8l-1.9,1.7l-2,1.5l-2,1.4l-2.1,1.3l-2.1,1.2l-2.1,1.1l-2.6,1.2l-2.6,1l-2.6,0.8l-2.5,0.7l-2.4,0.5l-2.3,0.4l-2.2,0.3
		l-2.1,0.2l-2.2,0.1l-2,0c-2.2,0-4.5-0.3-6.7-0.4l1.3,0.2l1.3,0.2l1.3,0.1l1.4,0.1l1.4,0.1l1.4,0l1.4,0l1.5-0.1l2.4-0.2l2.5-0.3
		l2.5-0.4l2.5-0.6l2.5-0.7l2.4-0.8l2.4-0.9l2.4-1.1l2.4-1.2l2.3-1.3l2.2-1.4l2.1-1.5l2-1.6l1.9-1.6l1.8-1.7l1.6-1.7l0.8-0.9l0.8-0.9
		l0.7-0.9l0.7-0.9l0.7-0.9l0.6-0.9l0.6-0.9l0.5-0.8l0.8-1.3l0.8-1.3l0.7-1.3l0.7-1.3l0.6-1.4l0.6-1.4l0.6-1.4l0.5-1.4l0.8-2.6
		l0.7-2.6l0.5-2.6l0.4-2.6l0.3-2.6l0.2-2.6l0-2.5l-0.1-2.5l-0.2-2.5l-0.3-2.5l-0.5-2.5l-0.6-2.4l-0.7-2.4l-0.8-2.4l-0.9-2.3l-1-2.3
		l-1.1-2.2l-1.2-2.1l-1.3-2.1l-1.4-2l-1.5-2l-1.6-1.9l-1.7-1.8l-1.8-1.7l-1.9-1.6l-2-1.5l-2.1-1.5l-2.1-1.4l-2.2-1.3l-2.3-1.2
		l-2.4-1.1l-2.5-0.9l-2.5-0.8l-2.5-0.7l-2.5-0.5l-2.5-0.4l-2.5-0.3l-2.5-0.2l-2.5,0l-2.5,0.1l-1.5,0.1l-1.5,0.2l-1.5,0.2L56.3,25
		l-1.5,0.3l-1.5,0.3L51.8,26l-1.5,0.4l-0.8,0.3L48.7,27l-0.8,0.3L47,27.6l-0.9,0.3l-0.9,0.4l-0.9,0.4l-0.9,0.4l-2.2,1.1l-2.2,1.2
		L37,32.7L35,34.1l-2,1.5l-1.9,1.6l-1.8,1.6l-1.6,1.7l-3.3,3.9l1.1-2l1.9-2.2l1.3-1.4l1.5-1.5l1.7-1.6l2-1.6l2.1-1.6l2.3-1.5
		l2.4-1.4l2.5-1.3l3.2-1.4l3.1-1.1l3-0.9l2.7-0.6c2.1-0.4,4.1-0.7,6.2-1l0.9-0.1l3.3-0.1l2.4,0.1l2.5,0.2l2.6,0.3l2.7,0.5l2.7,0.6
		c1.4,0.4,2.7,0.8,4.1,1.3l2.4,0.9l2.3,1l2.2,1.1l2.1,1.2l2,1.2l1.8,1.2l1.7,1.2l1.5,1.2l1.6,1.4l6,6.5c0.4,0.5,0.7,1,1.1,1.5
		l0.5,0.8l0.6,0.8l0.6,0.9l0.6,1l0.6,1l0.6,1.1l0.6,1.2l0.6,1.2l0.9,2l0.9,2.1c0.4,1.1,0.8,2.3,1.2,3.4L116,63l0.6,2.6l0.5,2.7
		c0.2,1.4,0.3,2.8,0.5,4.2l0.1,2.5v2.6l-0.1,2.6l-0.3,2.6l-0.4,2.6l-0.5,2.7l-0.7,2.6l-0.8,2.6l-1,2.7l-1.1,2.6l-1.2,2.5l-1.3,2.4
		l-1.4,2.2l-1.5,2.1l-1.6,2l-1.6,1.9l-2.2,2.3l-2.3,2.1l-2.2,1.9l-2.2,1.6L93,121l-2,1.2l-1.8,1l-1.6,0.8l-1,0.5l-0.9,0.4
		c-0.9,0.4-1.8,0.7-2.7,1.1l0.2,0c1.5-0.5,3-1.1,4.5-1.8l1.7-0.8l1.9-1c1.1-0.6,2.1-1.3,3.1-1.9l2.2-1.5l2.2-1.7l2.2-1.9
		c1.1-1.1,2.2-2.2,3.3-3.3l1.8-2l1.7-2.1l1.6-2.2l1.5-2.3l1.3-2.4l1.2-2.4l1.1-2.4l0.9-2.4l0.9-3l0.7-2.8l0.5-2.6l0.4-2.3l0.2-2
		c0.1-1.3,0.2-2.7,0.2-4l0-4.4l-0.2-2.5l-0.3-2.5l-0.4-2.5l-0.6-2.5l-0.7-2.5l-0.8-2.5l-0.9-2.5l-1.1-2.4l-0.5-1l-0.5-1l-0.5-1
		l-0.5-1l-0.5-0.9l-0.6-0.9l-0.6-0.9L109,45l0.4,0.6l0.5,0.7l0.5,0.8L111,48l0.6,1l0.6,1.1l0.6,1.2l0.6,1.2l1.1,2.5l1,2.6l0.9,2.7
		l0.7,2.7l0.6,2.6l0.4,2.5l0.3,2.3l0.2,1.9l0.2,2.7l0,0.2v0.9l0,1.3l-0.1,1.5l-0.1,1.6l-0.1,1.5c-0.1,0.9-0.2,1.8-0.3,2.8l-0.5,2.4
		l-0.3,1.1l-0.3,1.1l-0.3,1.2l-0.4,1.2c-0.2,0.6-0.4,1.3-0.6,1.9l-0.9,2.5l-1.1,2.6l-1.2,2.5l-1.4,2.5l-1.5,2.4l-1.6,2.2l-1.6,2.1
		l-1.6,1.9l-1.5,1.6l-1.5,1.5l-1.4,1.3c-1.2,1.1-2.4,2.1-3.7,3l0.5-0.3l1.2-0.9l1.1-0.9l1.1-1l1.1-1l1.1-1l1-1.1l1-1.1l1.7-2
		l1.7-2.1l1.6-2.2l1.5-2.3l1.4-2.4l1.2-2.5l1.1-2.6l1-2.7l0.9-2.7l0.7-2.7l0.6-2.7l0.4-2.7l0.3-2.7l0.2-2.7l0-2.7l-0.1-2.7l-0.2-2.6
		l-0.4-2.6l-0.5-2.6l-0.6-2.5l-0.7-2.5l-0.9-2.5l-1-2.4l-1.1-2.4l-1.2-2.3l-1.3-2.3l-1.4-2.2l-1.5-2.1l-1.6-2l-1.7-2l-1.8-1.9
		l-1.9-1.8l-2-1.7l-2.1-1.6l-2.2-1.5L93,29.4l-2.3-1.3l-2.4-1.2l-2.5-1.1l-2.5-0.9l-2.6-0.8l-2.6-0.7l-2.6-0.5l-2.6-0.4L70,22.1
		L67.4,22l-2.6,0l-2.6,0.1l-1.8,0.1l-1.8,0.2L57,22.7L55.2,23l-1.7,0.4l-1.7,0.4l-1.6,0.5L48.6,24.8L48.6,24.8z M79.5,123.3
		c-0.8,0.3-1.7,0.5-2.6,0.8l0.8-0.2l0.9-0.3L79.5,123.3L79.5,123.3z M97,119.9c-0.2,0.2-0.5,0.3-0.7,0.5L97,119.9z"/>
	<path class="st0" d="M58.2,22.2L56,22.6L54.3,23l-1.9,0.5l-2,0.6l-2.2,0.7L46,25.6c-1.2,0.5-2.3,1-3.4,1.5l-2.3,1.2L38,29.6
		L35.8,31l-2.1,1.5l-2,1.6l-1.9,1.7L28,37.6l-1.6,1.7l-1.6,1.9c-2,2.6-3.8,5.2-5.3,8.2l-0.2,0.5l-0.5,1l-0.4,1l-0.4,1l-0.4,1
		l-0.3,0.9L17,55.6l-0.3,0.9l-0.3,0.9L15.2,67c0,1,0,3.2,1,3.8l0.6-0.6l0.2-0.2c0.4,0.5,0.3,1.6,0.4,2.2l0.5,5.2l0.3,1.6l0.3,1.6
		l0.4,1.6l0.4,1.6l0.5,1.5l0.5,1.4l0.5,1.3l0.5,1.2l0.4,1l0.4,0.8l0.4,0.7l0.4,0.6l0.3,0.5l0.3,0.4l0.3,0.4l0.2,0.3l1,0.7
		c0.4,0,0.7-0.1,1.1,0l1.6,1.4c1.3,1.5,2.6,3.1,3.9,4.6l4.1,3.3c0.6,0.2,1.2,0.3,1.9,0.5l0.1,0l0.1,0c0.2,0.1,0.4,0.2,0.6,0.3
		l-0.6-0.5l-2-1.9l-1.3-1.4L33,99.7l-1.2-1.5l-1.1-1.6l-1.1-1.7c-0.5-0.9-1-1.8-1.5-2.7l-0.8-1.7l-0.7-1.8l-0.6-1.8L25.4,85
		l-0.5-1.9l-0.4-2l-0.3-2l-0.2-2l-0.1-2v-2l0.1-2l0.2-2l0.3-2l0.4-2.1l0.5-2.1l0.6-2.1l0.7-2l0.8-1.9l0.9-1.9l1-1.8l1.1-1.8l1.2-1.7
		l1.2-1.6l1.3-1.6l1.4-1.5l1.5-1.4l1.5-1.3l1.6-1.3l1.6-1.2l1.7-1.1l1.7-1l1.8-0.9l1.9-0.9l1.9-0.8l1.9-0.7l2-0.6l2-0.5l2-0.4l2-0.3
		l2-0.2l2.1-0.1H67l2.1,0.1l2.1,0.2l2.1,0.3l2.1,0.4l2.1,0.5l2.1,0.6l2.2,0.8l2.1,0.9l2,1l1.9,1l1.8,1.1l1.7,1.2l1.6,1.2l1.5,1.3
		l1.7,1.5l1.6,1.6l1.4,1.6l1.3,1.7l1.2,1.7l1.1,1.7l1,1.7l0.9,1.7l1.1,2.2l0.9,2.2l0.8,2.2l0.6,2.1l0.5,2l0.4,2l0.3,1.9l0.2,1.8
		l0.1,1.3l0.1,0.9l0.1,1.5v2l-0.1,2.2c-0.2,2.1-0.6,4.2-0.9,6.3l0.4-1.6l0.4-1.7L110,82l0.2-1.8l0.2-1.8l0.1-1.8l0-1.8l-0.1-1.8
		l-0.1-1l-0.1-1l-0.1-1l-0.1-1l-0.1-0.9l-0.2-0.9l-0.2-0.9l-0.2-0.8l-0.3-1.2l-0.3-1.2l-0.4-1.2l-0.4-1.2l-0.4-1.2l-0.5-1.1
		l-0.5-1.1l-0.5-1.1l-1-2l-1.1-1.9l-1.2-1.9l-1.3-1.8l-1.4-1.7L98.8,45l-1.5-1.6l-1.6-1.5L94,40.5l-1.8-1.4l-1.8-1.3l-1.9-1.2
		l-2-1.1l-2-1l-2.1-0.9l-2.2-0.8l-2.2-0.7l-2.2-0.5l-2.2-0.4l-2.2-0.3l-2.2-0.2l-2.2-0.1h-2.2l-2.2,0.1l-2.1,0.2l-2.1,0.3l-2.1,0.4
		l-2.1,0.5l-2.1,0.6l-2,0.7l-2,0.8l-2,0.9l-1.8,0.9l-1.8,1l-1.8,1.1c-0.9,0.6-1.7,1.2-2.6,1.8l-1.7,1.3L35,42.8
		c-0.8,0.8-1.6,1.5-2.3,2.3l-2,2.3l-1.3,1.7L28.2,51L27,52.8L26,54.7l-1,2c-0.5,1.1-0.9,2.1-1.3,3.2l-0.4,1.2l-0.4,1.2l-0.4,1.3
		L22.1,65l-0.3,1.3l-0.3,1.3l-0.2,1.3l-0.2,1.3v-0.4c0.1-2.3,0.5-4.6,1.1-6.9l0.9-3.1l0.6-1.8c0.4-0.9,0.8-1.9,1.2-2.8l1-1.9
		l1.1-1.9l1.2-2l1.4-2c0.8-1,1.6-1.9,2.4-2.9l1.4-1.5l1.5-1.4l1.6-1.4l1.7-1.3l1.8-1.3l1.9-1.2l2-1.1l2-1l1.9-0.9c1-0.4,2-0.8,3-1.1
		l2-0.7l2.1-0.6l2.1-0.5l2.2-0.4c1.1-0.1,2.2-0.2,3.4-0.3l2.2-0.1l2.2,0l2.2,0.1l2.2,0.2l2.2,0.4l2.2,0.5l2.2,0.6l2.2,0.7l2.2,0.8
		l2.1,0.9l2,1l2,1.1l1.9,1.2l1.8,1.3l1.7,1.4l1.7,1.4l1.6,1.6l1.5,1.6l1.5,1.7l1.4,1.7l1.3,1.8l1.2,1.9l1.1,1.9l1,1.9l1,2.1l0.8,2.1
		l0.7,2.1l0.6,2.1l0.5,2.1l0.4,2.1l0.3,2.1l0.2,2.1l0.1,2.5l0,2.4l-0.2,2.4l-0.3,2.3l-0.4,2.2l-0.5,2.2l-0.6,2.1l-0.6,2l-1.3,3.3
		c-2,4.4-4.5,8.1-7.1,12.1l4-5.2l1.3-2c0.7-1.2,1.3-2.4,1.9-3.6l1.8-4.3l1-3.1l0.5-2.2l0.5-2.3l0.4-2.3l0.2-2.4l0.1-2.5
		c0-1.3,0-2.5-0.1-3.8l-0.3-3.2l-0.3-2.2l-0.4-2.2l-0.5-2.2l-0.7-2.2l-0.8-2.2c-0.4-1.1-0.9-2.2-1.4-3.2l-1-2l-1.1-1.9l-1.2-1.9
		l-1.3-1.8l-1.4-1.8l-1.5-1.7l-1.6-1.7L96.6,41l-1.7-1.5l-1.8-1.4l-1.9-1.3l-1.9-1.2l-2-1.2l-2.1-1.1l-2.2-1l-2.2-0.9l-2.3-0.8
		l-2.3-0.6l-2.3-0.5l-2.3-0.4L69.3,29L67,28.8l-2.2,0l-2.2,0.1l-2.4,0.2l-2.3,0.3l-2.2,0.4l-2.2,0.5L51.4,31l-2.1,0.7l-2,0.8
		l-1.9,0.9l-2.2,1.1l-2.1,1.2l-2,1.3l-1.8,1.3l-1.7,1.4L34,41l-1.5,1.4l-1.4,1.4l-2.3,2.7L27,49.1c-1.3,1.9-2.5,4-3.5,6.1l-1,2.1
		l0.6-1.5l0.7-1.6l0.8-1.7l1-1.7l1.1-1.8l1.2-1.8l1.4-1.8l1.6-1.8l1.4-1.5c0.8-0.8,1.5-1.5,2.3-2.2l1.7-1.4l1.8-1.4l1.9-1.3l2-1.2
		c1-0.6,2.1-1.1,3.1-1.7l2-0.9l2-0.8l2.1-0.7l2.2-0.6l2.2-0.5l2.2-0.4l2.3-0.3l2.3-0.2l2.3-0.1l2.3,0l2.3,0.1l2.3,0.3l2.3,0.4
		l2.3,0.5l2.3,0.6l2.3,0.7l2.4,0.9l2.3,1l2.2,1.1l2.1,1.2l2,1.3l1.8,1.3l1.7,1.4l1.6,1.4l2,1.9l1.8,1.9l1.6,1.9l1.4,1.9l1.2,1.8
		l1,1.7l0.9,1.6l0.7,1.5l-0.7-1.3l-0.8-1.5l-1-1.7l-1.2-1.8l-1.4-1.9l-1.6-2l-1.8-2l-2-2L94.9,38l-1.8-1.4l-1.9-1.3l-2-1.3L87,32.8
		l-2.2-1.1c-1.2-0.5-2.4-1-3.6-1.5l-2.3-0.8l-2.3-0.7l-2.4-0.5l-2.4-0.4l-2.4-0.3l-2.3-0.2l-2.3,0l-2.3,0.1L60,27.7L57.6,28
		l-2.4,0.4L52.9,29l-2.2,0.6l-2.1,0.7l-2,0.8l-1.9,0.8l-2.6,1.3l-2.3,1.3l-2,1.3L36,37.1c-1.3,1-2.6,2.1-3.9,3.1l1.2-1.2l1.3-1.2
		l1.4-1.1l1.5-1.1l1.6-1.1l1.7-1.1l1.8-1l1.9-1l2-0.9l2.1-0.8l2.2-0.7l2.2-0.7l2.3-0.5l2.3-0.4l2.4-0.3l2.4-0.2l2.4-0.1l2.4,0
		l2.4,0.2l2.4,0.3l2.4,0.4l2.4,0.5l2.4,0.6l2.3,0.8l2.5,1l2.4,1.1l2.2,1.2l2.1,1.2l2,1.3l1.9,1.4l1.8,1.4l1.6,1.4l1.2,1.1l1.1,1.1
		l1.2,1.3l1.3,1.5l1.3,1.7l1.3,1.9l1.3,2l1.2,2.1l1.1,2.3l1,2.2l0.9,2.3l0.8,2.3l0.7,2.3l0.5,2.3l0.4,2.3l0.3,2.2l0.2,2.2l0.1,2.2
		l0,2.1c-0.1,2.6-0.4,5.1-0.5,7.7l-0.3,1.6l-0.2,0.9l-0.2,0.9l-0.3,1l-0.3,1l-0.3,1l-0.4,1.1l-0.8,2.1c-0.4,1.1-0.9,2.2-1.4,3.2
		l-1.1,2.2l-1.2,2.2l-1.4,2.2l-1.5,2.1c-0.8,1-1.6,2.1-2.5,3.1l-1.7,1.8l-1.8,1.7l-1.9,1.6l-1.9,1.5l-2,1.4l-2,1.3l-2,1.2l-2,1.1
		l-3.6,1.6l-3.5,1.3l-3.2,0.9l-2.8,0.6c-1.1,0.2-2.3,0.4-3.4,0.5l0.3,0l1.9-0.3c1.1-0.2,2.2-0.4,3.4-0.6l2.5-0.6l2.7-0.8l2.8-1
		l2.9-1.3l2-1l2-1.1c1-0.6,2-1.2,3-1.9l2-1.4l2-1.6l1.9-1.7c1-0.9,1.9-1.8,2.8-2.8l1.6-1.8l1.5-1.9l1.4-2l1.4-2.1l1.3-2.2l1.2-2.3
		l1.1-2.4l1-2.5l0.8-2.4l0.7-2.5l0.5-2.5l0.4-2.5l0.3-2.5l0.2-2.5l0-2.5l-0.1-2.4l-0.2-2.5l-0.3-2.5l-0.4-2.4l-0.5-2.4l-0.7-2.3
		l-0.8-2.3l-0.9-2.2l-0.9-2.1l-1.2-2.3l-1.3-2.2l-1.3-2.1l-1.4-2l-1.5-1.9l-1.5-1.8l-1.6-1.6l-1.6-1.5L82.3,28.4l-0.4-0.1l-2.2-0.7
		l-2.3-0.6L75,26.4l-2.5-0.4L70,25.6l-2.5-0.2l-2.5,0l-2.5,0.1L60,25.7l-2.4,0.3l-2.4,0.5l-2.4,0.6l-2.3,0.7l-2.2,0.8l-2.2,0.9
		L44,30.3l-2.5,1.3L39.1,33l-2.2,1.4l-2,1.5l-1.8,1.5l-1.6,1.4c-0.9,0.9-1.8,1.7-2.7,2.6L27.2,43l1.4-1.7l1.2-1.3
		c0.7-0.7,1.5-1.5,2.2-2.2l1.8-1.5l1.9-1.6l2.1-1.5l2.3-1.5c1.2-0.7,2.4-1.3,3.7-2l2.1-0.9l2.1-0.8l2.1-0.7l2.1-0.6l2-0.5l1.9-0.4
		l1.8-0.3l1.7-0.2l2.9-0.2l2.7-0.1l2.6,0.1l2.6,0.2l2.5,0.3l2.4,0.4l2.4,0.5l2.3,0.7l2.3,0.8l2.4,0.9l2.3,1l2.2,1.1l2.2,1.2l2.1,1.3
		l2,1.4l2,1.6l1.9,1.7l0.8,0.7l0.8,0.7l0.8,0.8l0.8,0.8l0.7,0.8l0.7,0.8l0.7,0.9l0.7,0.9l0.7,0.9l0.7,1l0.7,1l0.7,1.1l0.7,1.2
		l0.7,1.2l0.7,1.3l0.7,1.4l0.9,2l0.9,2.1c0.4,1.1,0.8,2.2,1.2,3.4l0.7,2.4l0.6,2.5l0.4,2.6c0.2,1.4,0.3,2.7,0.4,4l0.1,2.4l0,2.4
		l-0.2,2.5l-0.3,2.5l-0.4,2.6l-0.5,2.6l-0.7,2.6l-0.8,2.6l-0.9,2.5l-1,2.4l-1.2,2.3l-1.3,2.3l-1.4,2.2l-1.5,2.1l-1.6,2l-1.6,1.9
		l-1.8,1.9l-1.9,1.8l-1.9,1.7l-2,1.6l-2,1.4L91,120l-2.1,1.2l-2.1,1.1l-2.5,1.1l-2.5,1l-2.5,0.8l-2.5,0.7l-2.4,0.6L72,127l-2.3,0.3
		l-2.3,0.2l-4.2,0.1l-3.8-0.2l-3.4-0.4l-3-0.5c-2.2-0.5-4.3-1.1-6.4-1.6l2.3,0.8l2.4,0.7l2.5,0.6l2.6,0.5l2.7,0.4l2.8,0.2l2.8,0.1
		l2.8-0.1l2.6-0.2l2.6-0.3l2.5-0.5l2.5-0.6l2.5-0.7l2.4-0.8l2.3-0.9l2.3-1l2.4-1.2l2.3-1.3l2.2-1.4l2-1.4l1.9-1.5l1.8-1.5l1.6-1.5
		l1.5-1.5l0.6-0.7l1.7-1.9l1.6-2l1.5-2.1l1.4-2.2l1.3-2.3l1.2-2.4l1.1-2.4l1-2.5l0.8-2.6l0.7-2.6l0.5-2.6l0.4-2.6l0.3-2.6l0.2-2.6
		l0-2.6l-0.1-2.5l-0.2-2.5l-0.3-2.5l-0.5-2.5l-0.6-2.4l-0.7-2.4l-0.8-2.4l-0.9-2.3l-1-2.3l-1.1-2.2l-1.2-2.2l-1.3-2.1l-1.4-2l-1.5-2
		l-1.6-1.9l-1.7-1.8l-1.8-1.7l-1.9-1.6l-2-1.6l-2.1-1.5l-2.2-1.4L89.7,30l-2.3-1.2l-2.4-1.1l-2.5-1L80,26l-2.5-0.7L75,24.8l-2.5-0.4
		l-2.5-0.3l-2.5-0.2l-2.5,0l-2.5,0.1l-2.7,0.2l-1.9,0.2l-2,0.3l-2,0.4l-2.1,0.5l-2.1,0.6L47.5,27l-2.1,0.8l-2.1,0.9l-1.9,0.9l-1.8,1
		l-1.7,1l-1.6,1.1l-1.6,1.1L33.2,35c-0.9,0.7-1.8,1.4-2.6,2.2l1.5-1.8l3.4-2.7l1.4-1l1.6-1l1.7-1c0.9-0.5,1.9-1,2.9-1.5l2.3-1
		l2.4-0.9l2.5-0.8l2.5-0.7l2.5-0.6l2.5-0.4l2.4-0.3l2.3-0.2l1.7-0.1l1.6,0l1.4,0l1.3,0c0.8,0,1.6,0.1,2.5,0.1h0.3l7.7,1.4l1.6,0.4
		c0.8,0.3,1.6,0.5,2.4,0.8l2.5,1l2.5,1.1l2.4,1.2l2.3,1.3l2.2,1.4l2.1,1.5l2,1.6l1.8,1.6l0.8,0.7l0.7,0.7l0.7,0.7l0.7,0.7l0.6,0.7
		l0.6,0.7c0.4,0.4,0.8,0.9,1.1,1.3l5.1,7.4l0.7,1.3c0.3,0.6,0.6,1.3,0.9,1.9l0.2,0.4l0.7,1.6l0.8,1.8l0.8,2.1l0.8,2.3l0.7,2.5
		l0.6,2.7l0.5,2.9l0.3,3.1l0.1,3.7l-0.1,2.5l-0.2,2.6l-0.3,2.6l-0.5,2.7l-0.6,2.7c-0.4,1.4-0.8,2.7-1.2,4.1l-1,2.6l-1.1,2.5
		l-1.2,2.4l-1.3,2.4l-1.4,2.3l-1.5,2.2l-1.6,2.1l-1.7,2l-2,2.1l-2,1.9l-2.1,1.8l-2.1,1.6l-2.1,1.5l-2.1,1.3l-2.1,1.2l-2,1l-3,1.3
		l-2.7,1.1l-2.5,0.8l-2.1,0.6c-1.4,0.3-2.8,0.6-4.2,0.9l0.5,0c2.5-0.4,5-1,7.5-1.7l2.5-0.9c1.4-0.6,2.8-1.1,4.2-1.8l2.1-1.1
		c1.1-0.6,2.2-1.2,3.3-1.9l2.2-1.4l2.2-1.6l2.1-1.7l2-1.8c1-1,1.9-1.9,2.9-2.9l2-2.3l1.8-2.4l1.6-2.4l1.5-2.4l1.3-2.4l1.1-2.3
		l0.9-2.2l0.8-2.1l0.4-1.2l0.3-1.1l0.3-1l0.2-0.9c0.2-0.9,0.4-1.7,0.6-2.6l0.4-1.8l0.3-1.8l0.2-1.8l0.2-1.8l0.1-1.8l0.1-1.8l0-1.8
		l-0.1-1.8l-0.2-2.4l-0.3-2.4l-0.4-2.4l-0.5-2.4l-0.6-2.4l-0.7-2.3l-0.8-2.3l-0.9-2.3l0.6,1.4l0.7,1.8l0.8,2.1l0.7,2.4l0.7,2.6
		l0.5,2.8l0.4,2.9l0.3,2.9l0.1,2.4V77l-0.1,2.1c-0.1,2.1-0.4,4.2-0.6,6.3l-0.1,0.6L118,87l-0.2,1.1l-0.3,1.2l-0.3,1.2l-0.4,1.2
		l-0.4,1.1l-0.3,1l-0.4,1.1l0,0.1l-0.8,1.9L114,99l-1.1,2.2c-0.6,1.2-1.3,2.3-2,3.5l-1.5,2.3l-1.7,2.3c-0.9,1.1-1.8,2.2-2.7,3.3
		l-2.4,2.5l-2.5,2.3l-2.5,2.1l-2.4,1.8l-2.2,1.5l-2,1.2l-1.6,0.9l-1.2,0.6l-0.8,0.4l0.8-0.4l2.3-1.2l2.3-1.3l2.2-1.4l2.2-1.5
		l2.1-1.6l2-1.8l2-1.9l1.9-2l1.8-2l1.7-2.1l1.6-2.2l1.5-2.3l1.4-2.4l1.3-2.5l1.1-2.6l1-2.7l0.9-2.7l0.7-2.7l0.6-2.7l0.4-2.7l0.3-2.7
		l0.2-2.7l0-2.7l-0.1-2.7l-0.2-2.7l-0.4-2.6l-0.5-2.6l-0.6-2.6l-0.7-2.5l-0.9-2.5l-1-2.4l-1.1-2.4l-1.2-2.3l-1.3-2.3l-1.4-2.2
		l-1.5-2.1l-1.6-2.1l-1.7-2l-1.8-1.9l-1.9-1.8l-2-1.7l-2.1-1.6l-2.2-1.5l-2.3-1.4l-2.3-1.3l-2.4-1.2l-2.5-1.1l-2.5-1l-2.7-0.8
		l-2.7-0.7l-2.7-0.5l-2.7-0.4L70,21.9l-2.6-0.1l-2.6,0l-2.6,0.1L58.2,22.2L58.2,22.2z M69.6,125.7c-0.7,0.1-1.4,0.2-2.1,0.2
		L69.6,125.7z"/>
	<path class="st0" d="M39.7,29.3l-1.9,1.1l-1.5,1l-1.6,1.1L33,33.8l-1.8,1.5l-1.8,1.6c-0.9,0.9-1.8,1.8-2.7,2.7l-1.7,2l-1.6,2.1
		L22,45.9l-1.4,2.3l-1.3,2.3l-1.1,2.3l-1,2.3l-0.8,2.3l-0.7,2.2l-0.5,2l-0.4,1.8l-0.3,1.6l-0.2,1.4l-0.1,1.1l-0.1,0.8l0,0.4L14.1,70
		l0,1.2v1.2l0,1.1l0.1,1.1l0.1,1l0.1,1l0.1,0.9l2.3,8.4c0.4,0.8,1.1,2.7,2.2,2.8l0.3-0.8l0.1-0.2c0.5,0.3,0.9,1.5,1.2,2l2.5,4.8
		l1.6,2.6l0.9,1.3l0.9,1.3l0.9,1.2l0.9,1.1l0.9,1l0.9,0.9l3.4,2.9L34,107l0.4,0.2l0.3,0.2l1,0.1c0.2-0.1,0.5-0.3,0.7-0.4l1.5,0.3
		c2,0.9,3.9,2,5.8,3l4.9,1.5c1-0.1,1.7-0.3,2.8-0.1l-1.8-0.6l-1.8-0.7l-1.7-0.8l-1.7-0.9l-1.7-1l-1.6-1.1l-1.6-1.2l-1.6-1.3
		l-1.4-1.3l-1.3-1.3L34,100l-1.2-1.5L31.6,97l-1.1-1.6l-1-1.7l-0.9-1.8l-1.2-2.6l-0.7-1.8l-0.6-1.8l-0.5-1.9l-0.4-1.9L24.9,80
		c-0.1-1-0.2-2-0.3-3l-0.1-1.9v-2l0.1-2l0.2-2l0.3-2l0.4-2l0.5-2l0.6-2l0.7-2l0.8-1.9l0.9-1.9l1-1.8l1.1-1.7l1.1-1.7l1.2-1.6
		l1.3-1.5l1.4-1.5l1.4-1.4l1.5-1.3l1.6-1.2l1.6-1.2l1.7-1.1l1.7-1l1.7-0.9l1.9-0.9l1.9-0.8l1.9-0.7l1.9-0.6l2-0.5l2-0.4l2-0.3l2-0.2
		l2.1-0.1h2.1l2.1,0.1l2.1,0.2l2.1,0.3l2.1,0.4l2,0.5l2,0.6l2.2,0.8l2.1,0.9l2,1l1.9,1l1.8,1.1l1.7,1.2l1.6,1.2l1.5,1.2l1.8,1.6
		l1.6,1.7l1.5,1.7l1.4,1.7l1.2,1.7l1.1,1.6l1,1.6l0.9,1.5l0.7,1.4l0.4,0.8l0.6,1.4l0.7,1.8l0.7,2.1c0.6,2,1,4,1.5,6.1l-0.2-1.6
		l-0.3-1.7l-0.4-1.8l-0.4-1.8l-0.5-1.8l-0.6-1.8l-0.7-1.7l-0.7-1.7l-0.4-0.9l-0.4-0.9l-0.5-0.8l-0.4-0.8l-0.5-0.8l-0.5-0.7l-0.5-0.7
		l-0.4-0.7l-0.7-1l-0.8-1l-0.8-1l-0.8-1l-0.8-0.9l-0.9-0.9l-0.9-0.9l-0.9-0.9L93.6,41l-1.7-1.4L90,38.3l-1.9-1.2l-1.9-1.1l-2-1
		l-2-0.9l-2.1-0.8l-2.2-0.7l-2.2-0.6l-2.2-0.4l-2.2-0.3l-2.2-0.2L67,31.1h-2.2l-2.1,0.1l-2.1,0.2l-2.1,0.3l-2.1,0.4l-2,0.5l-2,0.6
		l-2,0.7l-2,0.8l-1.9,0.9l-1.8,0.9l-1.8,1l-1.7,1.1L39.6,40l-1.6,1.3l-1.6,1.4l-1.5,1.5l-1.5,1.6l-1.3,1.5l-1.3,1.6l-1.2,1.7
		l-1.1,1.8l-1.1,1.9l-1,2l-0.9,2l-0.8,2.1l-0.7,2l-0.6,2l-0.5,2.1l-0.4,2.1l-0.3,2.1L22,72.8L21.9,75l0,2.2l0.1,1.1l0.1,1.1l0.1,1.1
		l0.2,1.1l0.2,1.1l0.2,1.1l0.3,1.2l0.3,1.1L23.3,86l-0.2-0.6l-0.2-0.8l-0.3-1l-0.3-1.3L22,80.8l-0.2-1.7l-0.2-1.9l-0.1-1.7
		c0-0.9,0-1.9,0-2.8l0.1-2l0.2-2.2l0.4-2.3l0.5-2.4c0.3-1.3,0.7-2.5,1.1-3.7l0.7-1.9l0.8-1.9l0.9-1.9l1.1-1.9l1.2-1.9l1.3-1.8
		l1.4-1.8l1.5-1.7l1.4-1.5l1.5-1.4l1.6-1.4l1.7-1.3l1.7-1.2l1.8-1.2l1.9-1.1l1.9-1l1.9-0.9l2-0.8l2-0.7l2-0.6l2.1-0.5l2.1-0.4
		l2.1-0.3l2.2-0.2l2.2-0.1l2.2,0l2.2,0.1l2.2,0.2l2.2,0.4l2.2,0.5l2.2,0.6l2.2,0.7l2.2,0.8l2.1,0.9l2,1l1.9,1.1l1.9,1.2l1.8,1.3
		l1.7,1.3l1.6,1.4l1.6,1.6l1.5,1.6l1.4,1.7l1.3,1.7l1.2,1.8l1.1,1.8l1,1.8l0.9,1.8l1,2.2l0.8,2.2l0.7,2.2l0.6,2.1l0.5,2.1l0.4,2.1
		l0.3,2l0.2,1.9l0.1,3.5l-0.1,3.2c-0.3,3.9-1.2,7.5-1.9,11.3l1.6-5.6l0.4-2.3c0.2-1.3,0.3-2.6,0.5-4L111,76l-0.1-3.2l-0.2-2
		l-0.3-2.1l-0.4-2.1l-0.5-2.1l-0.6-2.2l-0.7-2.2l-0.8-2.2l-1-2.2l-0.9-1.9l-1-1.9l-1.2-1.8l-1.3-1.8l-1.4-1.8l-1.5-1.7l-1.6-1.7
		l-1.7-1.6l-1.6-1.4l-1.7-1.4l-1.8-1.3l-1.9-1.2l-2-1.1L84.9,34l-2.1-1l-2.2-0.9l-2.2-0.7L76,30.9l-2.2-0.5L71.6,30l-2.2-0.3
		l-2.2-0.1l-2.2,0l-2.2,0.1l-2.2,0.2l-2.2,0.3L56,30.5l-2.1,0.5l-2.1,0.6l-2,0.7l-2,0.8L45.8,34l-2,1l-2,1.1l-1.9,1.2l-1.8,1.3
		L36.4,40l-1.6,1.4l-1.5,1.4l-1.4,1.5l-1.6,1.9l-1.5,1.9L27.3,50L26.1,52l-1.1,1.9l-0.9,1.9l-0.8,1.9l-0.7,1.9l-1,3.3
		c-0.9,3.7-1.5,7.4-1.6,11.2l0,0.1l0-1.4l0.1-1.6l0.1-1.7l0.2-1.8l0.3-1.9l0.4-2l0.5-2.1l0.7-2.2l0.7-2l0.9-2l1-2l1.1-2l1.2-2
		l1.3-1.9l1.4-1.9l1.6-1.8l1.5-1.6l1.6-1.5l1.6-1.4l1.7-1.4l1.8-1.3l1.9-1.2l1.9-1.1l2-1l2-0.9l2.1-0.8l2.1-0.7l2.1-0.6l2.2-0.5
		l2.2-0.4l2.2-0.3l2.2-0.2l2.4-0.1l2.4,0l2.4,0.1l2.3,0.3l2.3,0.4l2.2,0.5l2.2,0.6l2.1,0.7l2.7,1l2.5,1.1l2.3,1.2l2.1,1.2l1.8,1.2
		l0.4,0.3l-1-0.8l-1.9-1.3l-2.2-1.3c-1.2-0.7-2.5-1.3-3.8-1.9l-2.8-1.1l-2.1-0.7l-2.2-0.6l-2.2-0.5L72,28.9l-2.3-0.3l-2.4-0.2
		l-2.4-0.1l-2.4,0.1l-2.3,0.2L58,28.9l-2.2,0.4l-2.2,0.5l-2.2,0.6l-2.1,0.7l-2.1,0.8l-2,0.9L43,33.9l-2.1,1.2l-2,1.3L37,37.6
		L35.3,39l-1.6,1.4l-1.5,1.4l-1.4,1.4l-1.8,2.1l-1.6,2l-1.3,1.9l-1.1,1.7c-0.8,1.4-1.6,2.8-2.4,4.2l0.7-1.5l0.8-1.5l0.9-1.5l0.9-1.5
		l1-1.5l1.1-1.5l1.2-1.5l1.3-1.5l1.5-1.6l1.6-1.5l1.7-1.5l1.8-1.4l1.9-1.3l2-1.3l2-1.2l2.1-1.1l2.1-0.9l2.1-0.8l2.2-0.7l2.2-0.6
		l2.2-0.5l2.3-0.4l2.3-0.3l2.3-0.2l2.5-0.1l2.4,0l2.4,0.2l2.4,0.3l2.3,0.4l2.3,0.5l2.2,0.6l2.1,0.7l2.4,0.9l1.4,0.6l1.6,0.8l1.7,0.9
		l1.8,1c0.9,0.6,1.8,1.2,2.7,1.8l1.8,1.4c0.9,0.8,1.8,1.5,2.7,2.3l1.7,1.6l1.6,1.7l1.5,1.8l1.5,1.9l1.3,1.9l1.2,1.9l1.1,1.9l1,1.9
		l0.9,2.1l0.8,2l0.7,1.8c0.6,1.9,1.1,3.8,1.7,5.6l0.5,2.9L113,70l0.1,0.9l0.1,0.9l0.1,0.9l0.1,2l0,2.2l-0.1,2.3l-0.2,2.4l-0.3,2.5
		l-0.5,2.6l-0.6,2.6l-0.8,2.6l-0.9,2.4l-1,2.3l-1.1,2.3l-1.2,2.2l-1.3,2.1l-1.4,2l-1.4,1.9l-1.5,1.7l-2.6,2.7l-2.5,2.3l-2.4,1.9
		l-2.2,1.6c-1.3,0.8-2.6,1.6-4,2.4l0.8-0.4l1.7-1c1-0.6,1.9-1.2,2.9-1.8l2.1-1.5l2.2-1.7l2.2-2l2.2-2.3l1.4-1.6
		c0.7-0.9,1.4-1.8,2.1-2.7l1.4-2l1.3-2.1l1.2-2.2l1.1-2.4c0.5-1.3,1-2.5,1.5-3.8l0.8-2.3l0.7-2.4l0.5-2.4l0.4-2.4l0.3-2.5l0.2-2.5
		l0-2.5l-0.1-2.5l-0.2-2.4l-0.3-2.4l-0.4-2.3l-0.5-2.3L112,61l-0.8-2.2l-0.9-2.2l-1-2.1l-1.1-2.2l-1.2-2.1l-1.3-2l-1.4-2l-1.5-1.9
		l-1.5-1.8l-1.6-1.7l-1.6-1.6l-2-1.7l-2-1.6l-2.1-1.5l-2.1-1.3L88,31.9l-2.1-1l-2.1-0.9l-2.1-0.8l-17.9-2.9l-1.3,0.1l-2.2,0.2
		L58,26.8l-2.3,0.4l-2.3,0.5l-2.3,0.6l-2.3,0.8L46.6,30l-2.2,1l-2.1,1.1l-2.1,1.2l-2,1.3l-1.9,1.4l-1.8,1.5l-1.8,1.5l-1.7,1.6
		l-1.6,1.6l-1.9,2.2l-1.7,2.2l-1.5,2.2l-1.3,2.2L21.8,53l-1,2c-0.5,1.1-1,2.3-1.5,3.5l-0.4,1.1l0.3-1.2l0.5-1.6l0.7-1.9l0.9-2.1
		l1.1-2.2l1.3-2.3l1.5-2.3l1.7-2.3l1.9-2.2l1.6-1.7l1.6-1.6l1.7-1.5l1.7-1.3l1.7-1.2l1.6-1.1l1.6-0.9l1.5-0.8l2.3-1.1l2.4-1l2.4-0.9
		l2.3-0.7l2.3-0.6l2.3-0.5l2.2-0.4l2.2-0.3l2.2-0.2l2.4-0.1l2.4,0l2.4,0.1l2.4,0.3l2.4,0.4l2.4,0.5l2.5,0.7l2.5,0.8l1.1,0.4l1.1,0.4
		l1.1,0.5l1.1,0.5l1.1,0.5l1.1,0.6l1.1,0.6l1.1,0.6l0.9,0.5l1,0.6l1,0.7l1,0.7l1,0.8l1.1,0.8l1.1,0.9l1.1,0.9l1.6,1.5l1.6,1.6
		l1.5,1.7l1.5,1.9l1.4,2l1.4,2.1l1.3,2.2l1.2,2.4l1,2.1l0.9,2.2l0.8,2.3l0.7,2.3l0.6,2.4l0.5,2.4l0.4,2.5l0.2,2.5l0.1,2.5l0,2.5
		l-0.1,2.5l-0.3,2.5l-0.4,2.5l-0.5,2.5l-0.7,2.5l-0.8,2.5l-1,2.5l-1.1,2.4l-1.2,2.3l-1.3,2.2l-1.4,2.1l-1.4,2l-1.5,1.9l-1.6,1.8
		l-1.9,2l-1.9,1.8l-2,1.7l-2,1.5l-2,1.4l-2,1.3l-2,1.1l-2,1l-3.3,1.5l-3.1,1.2l-2.9,0.9c-3.2,0.8-6.5,1.4-9.9,1.8l-0.9,0.1l-0.1,0
		l-0.1,0l1,0l3.4-0.3l2.4-0.3l2.4-0.5l2.5-0.6l2.5-0.7l2.5-0.9c1.3-0.5,2.5-1,3.7-1.6l2.2-1.1l2.2-1.2l2.1-1.4l2.1-1.5l2-1.5
		l1.9-1.6l1.8-1.7l1.7-1.8l1.7-1.9l1.6-2l1.4-2l1.3-2l1.2-2l1-2l0.9-1.9l0.8-1.9l0.7-1.9l0.8-2.5l0.7-2.5l0.5-2.5l0.4-2.5l0.3-2.5
		l0.2-2.5l0-2.5l-0.1-2.5l-0.2-2.5l-0.3-2.5l-0.5-2.4l-0.6-2.4l-0.7-2.4l-0.8-2.3l-0.9-2.3l-1-2.2l-1.1-2.2l-1.2-2.1l-1.3-2.1
		l-1.4-2l-1.5-1.9l-1.6-1.9l-1.7-1.8l-1.8-1.7l-1.9-1.6l-1.9-1.5l-2-1.4l-2.1-1.3l-2.2-1.2L87,29.5l-2.4-1l-2.4-0.9l-2.5-0.8
		l-2.5-0.7l-2.5-0.5l-2.5-0.4l-2.5-0.3l-2.5-0.2l-2.5,0l-2.5,0.1L60,24.9l-2.4,0.3l-2.4,0.4l-2.4,0.5l-2.3,0.7l-2.3,0.8l-2.3,0.9
		l-2.2,1l-2,1L40,31.4l-1.7,1l-1.7,1.1l-1.8,1.2l-1.7,1.4l-1.7,1.5l-1.7,1.6l-1.6,1.6l-1.3,1.5l-1.2,1.5l-1.2,1.5l-1.1,1.5l-1,1.5
		L21.4,50c-0.5,1-1.1,1.9-1.6,2.9l0.7-2.2l2.1-3.6l0.9-1.3l1-1.4l1.2-1.5c0.6-0.8,1.3-1.5,2-2.3l1.7-1.8l1.8-1.7l1.9-1.6l2-1.6
		l2.1-1.4l2.1-1.3l2-1.1l2-1l1.6-0.7c2.2-1,4.5-1.7,6.8-2.5l1.1-0.3l1.2-0.3l1.2-0.3l1.3-0.2l1.3-0.2l1.4-0.2l1.4-0.1l1.5-0.1
		l2.5-0.1l2.5,0l2.6,0.2l2.6,0.3l2.6,0.4l2.6,0.6l2.5,0.7l2.4,0.8l1.1,0.4l1.1,0.4l1.1,0.4l1,0.4l1,0.5l0.9,0.5l0.9,0.5l0.8,0.4
		l8.1,5.6c0.5,0.4,1,0.9,1.5,1.3l0.6,0.5l1.2,1.2l1.4,1.4l1.4,1.6l1.5,1.8l1.5,2l1.5,2.2l1.5,2.4l1.4,2.6l1,2.1l0.9,2.2l0.8,2.3
		l0.7,2.4l0.6,2.5l0.5,2.6l0.4,2.6l0.3,2.7l0.1,2.6l0,2.6l-0.2,2.6l-0.3,2.6l-0.4,2.6l-0.5,2.6l-0.7,2.6l-0.8,2.5l-1.1,2.8l-1.2,2.7
		l-1.3,2.5l-1.4,2.4l-1.4,2.2l-1.5,2l-1.5,1.9l-1.5,1.7l-2.3,2.4l-2.2,2l-2,1.7l-1.8,1.3c-1.2,0.8-2.4,1.6-3.6,2.4l0.4-0.2
		c1.9-1.1,3.7-2.3,5.4-3.6l2-1.6l2.1-1.9l2.2-2.2l2.4-2.8l1.6-2l1.5-2.2l1.4-2.3l1.3-2.4l1.2-2.5c0.5-1.3,1.1-2.6,1.6-3.9l1-3l0.8-3
		l0.6-2.9l0.4-2.8l0.2-2.6l0.1-2.4l0-2.2l-0.1-2l-0.1-1l-0.1-0.9c-0.1-1.3-0.3-2.5-0.5-3.8l-0.3-1.8l-0.4-1.8l-0.4-1.8l-0.5-1.8
		L115,58l-0.6-1.8l-0.7-1.7l-0.8-1.7l-1-2l-1.1-2l-1.2-2l-1.3-1.9l-1.4-1.9l-1.5-1.9l-1.6-1.8l-1.7-1.8l1,1l1.3,1.4l1.4,1.6l1.5,1.9
		l1.5,2.1l1.5,2.3l1.4,2.4l1.3,2.5l1,2.2l0.9,2.1l0.7,2c0.7,2.1,1.2,4.1,1.8,6.2l0.2,1.2l0.2,0.9l0.2,1l0.1,1l0.1,1.1l0.1,1l0.1,1
		l0.1,2.1v0.1l0,2.8l-0.1,2.1l-0.2,2.3l-0.3,2.5l-0.5,2.6l-0.6,2.6c-0.4,1.4-0.8,2.7-1.2,4l-1.2,3.3l-1.4,3.1l-1.5,2.9l-1.5,2.6
		l-1.5,2.2l-1.4,1.9l-1.2,1.5l-1,1.1l-0.9,0.9l0.9-0.9l1.7-2l1.6-2.1l1.6-2.2l1.5-2.3l1.4-2.4l1.2-2.5l1.1-2.6l1-2.6l0.9-2.6
		l0.7-2.7l0.6-2.7l0.4-2.7l0.3-2.7l0.2-2.7l0-2.7l-0.1-2.7l-0.2-2.6l-0.4-2.6l-0.5-2.6l-0.6-2.5l-0.7-2.5l-0.8-2.5l-1-2.4l-1.1-2.4
		l-1.2-2.3l-1.3-2.2l-1.4-2.2l-1.5-2.1l-1.6-2l-1.7-2l-1.8-1.9l-1.9-1.8l-2-1.7l-2.1-1.6L95,31.2l-2.2-1.4l-2.3-1.3l-2.4-1.2
		l-2.5-1.1l-2.5-1l-2.6-0.8l-2.6-0.7l-2.6-0.5l-2.6-0.4L70,22.5l-2.6-0.1l-2.6,0l-2.5,0.1l-2.6,0.2l-2.6,0.4l-2.5,0.5l-2.5,0.6
		l-2.4,0.7l-2.4,0.8L45,26.6l-2.2,1L39.7,29.3L39.7,29.3z M92.6,37.5l1.2,0.9l1.4,1.2l1.2,1.1L92.6,37.5z M87.2,119.7
		c-0.4,0.2-0.9,0.5-1.4,0.7l-0.1,0c0,0,0,0,0,0l0,0l0.1,0l0,0h0L87.2,119.7z"/>
	<path class="st1" d="M38.3,30.1l-1.8,1.1l-1.4,0.9l-1.5,1.1L32,34.5l-1.7,1.4l-1.7,1.6c-0.9,0.9-1.7,1.7-2.5,2.6l-1.6,1.9l-1.5,2
		L21.5,46l-1.3,2.2L19,50.3l-1.1,2.2L17,54.8l-0.8,2.2L15.6,59L15,61l-0.4,1.8l-0.3,1.5l-0.2,1.3l-0.1,1L14,67.4l0,0.4L14,69l0,1.1
		v1.1l0,1.1l0.1,1l0.1,1l0.1,0.9l0.1,0.9l2.2,8c0.4,0.8,1.1,2.5,2.1,2.6l0.3-0.7l0.1-0.2c0.5,0.3,0.9,1.4,1.1,1.9l2.4,4.5l1.6,2.5
		l0.9,1.2l0.9,1.2l0.9,1.1l0.9,1.1l0.9,1l0.8,0.8l3.2,2.7l0.4,0.3l0.4,0.2l0.3,0.2l0.9,0.1c0.2-0.1,0.4-0.2,0.7-0.4l1.4,0.3
		c1.9,0.8,3.7,1.9,5.5,2.8l4.7,1.5c1-0.1,1.7-0.2,2.7-0.1l-1.7-0.6l-1.7-0.7l-1.7-0.8l-1.6-0.9l-1.6-1l-1.6-1l-1.5-1.2l-1.5-1.2
		l-1.3-1.2l-1.2-1.3l-1.2-1.3l-1.1-1.4l-1.1-1.5l-1-1.6l-1-1.6l-0.9-1.7l-1.1-2.5L26,85.7l-0.6-1.7L25,82.1l-0.4-1.8l-0.3-1.8
		c-0.1-0.9-0.2-1.9-0.3-2.8l-0.1-1.9v-1.9l0.1-1.9l0.2-1.9l0.3-1.9l0.4-1.9l0.5-1.9l0.6-1.9l0.7-1.9l0.8-1.8l0.9-1.8l0.9-1.7l1-1.6
		l1.1-1.6l1.2-1.5l1.2-1.5l1.3-1.4l1.4-1.3l1.4-1.3l1.5-1.2l1.5-1.1l1.6-1l1.6-1l1.7-0.9l1.8-0.8l1.8-0.7l1.8-0.6l1.8-0.5l1.9-0.5
		l1.9-0.4l1.9-0.3l1.9-0.2l2-0.1h2l2,0.1l2,0.2l2,0.3l2,0.4l1.9,0.5l1.9,0.6l2.1,0.8l2,0.8l1.9,0.9l1.8,1l1.7,1l1.6,1.1l1.5,1.1
		l1.4,1.2l1.7,1.6l1.6,1.6l1.4,1.6l1.3,1.6l1.2,1.6l1,1.6l0.9,1.5l0.8,1.4l0.7,1.3l0.4,0.7l0.6,1.3l0.7,1.7l0.7,2
		c0.5,1.9,0.9,3.8,1.4,5.8l-0.2-1.6l-0.3-1.6l-0.3-1.7l-0.4-1.7l-0.5-1.7l-0.6-1.7l-0.6-1.6l-0.7-1.6l-0.4-0.8l-0.4-0.8l-0.4-0.8
		l-0.4-0.8l-0.4-0.7l-0.4-0.7L98,50.5l-0.4-0.6l-0.7-1l-0.7-1L95.4,47l-0.8-0.9l-0.8-0.9L93,44.3l-0.8-0.8l-0.9-0.8l-1.6-1.4L88,40
		l-1.7-1.2l-1.8-1.1l-1.8-1l-1.9-0.9l-2-0.8l-2-0.7l-2.1-0.6L72.6,33l-2.1-0.4l-2.1-0.3L66.4,32l-2.1-0.1h-2.1l-2,0.1l-2,0.2l-2,0.3
		l-2,0.4l-1.9,0.5L50.5,34l-1.9,0.7l-1.9,0.8l-1.8,0.9l-1.7,0.9l-1.7,1l-1.6,1.1l-1.6,1.1l-1.6,1.2l-1.5,1.3l-1.5,1.4l-1.4,1.5
		L31,47.3l-1.2,1.5l-1.2,1.6l-1.1,1.7l-1,1.8l-1,1.9l-0.9,1.9l-0.8,2l-0.6,1.9l-0.5,1.9l-0.4,2l-0.3,2l-0.3,2l-0.2,2l-0.1,2.1l0,2.1
		l0.1,1.1l0.1,1.1l0.1,1.1l0.2,1.1l0.2,1.1l0.2,1.1l0.2,1.1l0.3,1.1l-0.1-0.3l-0.2-0.5l-0.2-0.8l-0.3-1l-0.3-1.2l-0.3-1.4l-0.2-1.6
		l-0.2-1.8L21,74.2c0-0.9,0-1.8,0-2.7l0.1-1.9l0.2-2.1l0.4-2.2l0.5-2.3c0.3-1.2,0.7-2.4,1.1-3.5l0.7-1.9l0.8-1.8l0.9-1.8l1-1.8
		l1.1-1.8l1.2-1.7l1.3-1.7l1.4-1.6l1.4-1.4l1.4-1.4l1.5-1.3l1.6-1.2l1.7-1.2l1.7-1.1l1.8-1l1.9-0.9l1.8-0.8l1.9-0.7l1.9-0.7l1.9-0.6
		l2-0.5l2-0.4l2-0.3l2.1-0.2l2.1-0.1l2.1,0l2.1,0.1l2.1,0.2l2.1,0.3l2.1,0.4l2.1,0.5l2.1,0.7l2.1,0.8l2,0.9l1.9,1l1.9,1.1l1.8,1.1
		l1.7,1.2l1.6,1.3l1.5,1.3L93,44l1.5,1.6l1.4,1.6l1.3,1.6l1.2,1.7l1.1,1.7l1,1.7l0.9,1.7l0.9,2.1l0.8,2.1l0.7,2.1l0.6,2l0.5,2l0.4,2
		l0.3,1.9l0.2,1.9l0.1,3.3l-0.1,3c-0.3,3.7-1.1,7.1-1.9,10.7l1.6-5.3l0.4-2.2c0.2-1.3,0.3-2.5,0.5-3.8l0.1-2.8l-0.1-3l-0.2-1.9
		l-0.2-2l-0.3-2l-0.5-2l-0.6-2.1l-0.7-2.1l-0.8-2.1l-0.9-2.1l-0.9-1.8l-1-1.8L99,50l-1.2-1.7l-1.3-1.7L95.1,45l-1.5-1.6l-1.6-1.5
		l-1.6-1.4l-1.7-1.3l-1.7-1.2l-1.8-1.2l-1.9-1.1l-2-1l-2-0.9l-2.1-0.8l-2.1-0.7L73,31.7l-2.1-0.5l-2.1-0.4l-2.1-0.2l-2.1-0.1l-2.1,0
		l-2.1,0.1l-2.1,0.2L55.9,31l-2.1,0.4l-2,0.5l-2,0.6l-2,0.7L46,33.8l-1.8,0.8l-1.9,1l-1.9,1.1l-1.8,1.1l-1.7,1.2l-1.6,1.3l-1.5,1.3
		l-1.5,1.4l-1.4,1.4l-1.5,1.8l-1.4,1.8l-1.3,1.8l-1.2,1.9l-1,1.9l-0.9,1.8l-0.8,1.8L22,59.1l-1,3.2c-0.9,3.5-1.4,7.1-1.6,10.6l0,0.1
		l0-1.3l0.1-1.5l0.1-1.6l0.2-1.7l0.3-1.8l0.4-1.9l0.5-2l0.7-2.1l0.7-1.9l0.8-1.9l0.9-1.9l1-1.9l1.1-1.9l1.3-1.8l1.4-1.8l1.5-1.7
		l1.4-1.5l1.5-1.4l1.6-1.4l1.6-1.3l1.7-1.2l1.8-1.2l1.8-1.1l1.9-1l1.9-0.9l2-0.8l2-0.7l2-0.6l2.1-0.5l2.1-0.4l2.1-0.3l2.1-0.2
		l2.3-0.1l2.3,0l2.2,0.1l2.2,0.3l2.2,0.4l2.1,0.5l2.1,0.6l2,0.6l2.6,1l2.4,1.1l2.2,1.1l2,1.2l1.8,1.2l0.4,0.3l-0.9-0.8L86,36
		l-2.1-1.2c-1.2-0.6-2.4-1.2-3.6-1.8l-2.7-1.1l-2-0.7l-2.1-0.6l-2.1-0.5l-2.2-0.4l-2.2-0.3l-2.3-0.2l-2.3-0.1l-2.3,0.1L58,29.5
		l-2.2,0.3l-2.1,0.4l-2.1,0.5l-2.1,0.6l-2,0.7l-2,0.8l-1.9,0.8l-2.1,1l-2,1.1l-1.9,1.2l-1.8,1.3l-1.7,1.3l-1.6,1.3l-1.5,1.4
		l-1.3,1.4l-1.7,2l-1.5,1.9l-1.3,1.8l-1,1.6c-0.8,1.3-1.5,2.6-2.3,4l0.7-1.4l0.7-1.4l0.8-1.5L25,49l1-1.5l1.1-1.5l1.2-1.4l1.2-1.4
		l1.4-1.5l1.5-1.5l1.6-1.4l1.7-1.3l1.8-1.3l1.9-1.2l1.9-1.1l2-1l2-0.9l2-0.8l2.1-0.7l2.1-0.6l2.1-0.5l2.2-0.4l2.2-0.3l2.2-0.2
		l2.3-0.1l2.3,0l2.3,0.2l2.3,0.3l2.2,0.4l2.2,0.5l2.1,0.6l2,0.7l2.3,0.9l1.4,0.6l1.5,0.7l1.6,0.9l1.7,1c0.9,0.6,1.7,1.1,2.6,1.7
		l1.8,1.3c0.9,0.7,1.7,1.5,2.6,2.2l1.6,1.6l1.6,1.7l1.5,1.7l1.4,1.8l1.3,1.8l1.2,1.8l1,1.8l0.9,1.8l0.9,2l0.8,1.9l0.6,1.7
		c0.6,1.8,1.1,3.6,1.6,5.4l0.5,2.7l0.1,0.8l0.1,0.8l0.1,0.9l0.1,0.9l0.1,1.9l0,2.1l-0.1,2.2l-0.2,2.3l-0.3,2.4l-0.5,2.4l-0.6,2.5
		l-0.8,2.5l-0.8,2.3l-1,2.2l-1.1,2.2l-1.2,2.1l-1.2,2l-1.3,1.9l-1.4,1.8l-1.4,1.7l-2.4,2.6l-2.4,2.2l-2.3,1.8l-2.1,1.5
		c-1.3,0.8-2.5,1.6-3.8,2.3l0.7-0.4L86,115c0.9-0.6,1.8-1.1,2.7-1.7l2-1.4l2.1-1.7l2.1-1.9l2.1-2.2l1.4-1.6c0.7-0.9,1.4-1.7,2-2.6
		l1.3-1.9l1.2-2l1.2-2.1l1.1-2.3c0.5-1.2,1-2.4,1.5-3.6l0.7-2.2l0.6-2.3l0.5-2.3l0.4-2.3l0.3-2.3l0.2-2.4l0-2.4l-0.1-2.4l-0.2-2.3
		l-0.3-2.3l-0.4-2.2l-0.5-2.2l-0.6-2.2l-0.7-2.1l-0.8-2.1l-0.9-2l-1-2.1l-1.1-2l-1.2-1.9l-1.3-1.9l-1.4-1.8l-1.5-1.7l-1.5-1.6
		l-1.6-1.5l-1.9-1.6l-1.9-1.5l-2-1.4l-2-1.3l-2-1.1l-2-1l-2-0.9l-2-0.8l-17-2.7L60,27.3l-2.1,0.2l-2.1,0.3l-2.2,0.4l-2.2,0.5
		l-2.2,0.6L47.1,30l-2.2,0.8l-2.1,1l-2,1l-2,1.1l-1.9,1.2L35,36.5l-1.8,1.4l-1.7,1.4L30,40.8l-1.5,1.5l-1.8,2.1l-1.6,2.1l-1.4,2.1
		l-1.3,2.1l-1.1,2l-0.9,1.9c-0.5,1.1-1,2.2-1.4,3.3L18.5,59l0.3-1.1l0.5-1.5l0.7-1.8l0.9-2l1.1-2.1l1.3-2.2l1.4-2.2l1.6-2.2l1.8-2.1
		l1.5-1.6l1.6-1.5l1.6-1.4l1.6-1.3L36,35l1.6-1L39,33l1.4-0.8l2.1-1.1l2.3-1l2.3-0.8l2.2-0.7l2.2-0.6l2.2-0.5l2.1-0.4l2.1-0.3
		l2.1-0.2l2.3-0.1l2.3,0l2.3,0.1l2.3,0.3l2.3,0.4l2.3,0.5l2.4,0.6l2.4,0.8l1.1,0.4l1.1,0.4l1.1,0.4l1.1,0.5l1.1,0.5l1.1,0.5l1.1,0.6
		l1.1,0.6l0.9,0.5l0.9,0.6l0.9,0.6l1,0.7l1,0.7l1,0.8l1,0.8l1,0.9l1.5,1.4l1.5,1.5l1.5,1.6l1.4,1.8l1.4,1.9l1.3,2l1.2,2.1l1.2,2.2
		l0.9,2l0.8,2.1l0.7,2.1l0.6,2.2l0.5,2.3l0.4,2.3l0.3,2.4l0.2,2.4l0.1,2.3l0,2.4l-0.1,2.4l-0.3,2.4l-0.4,2.4l-0.5,2.4l-0.6,2.4
		l-0.7,2.4l-0.9,2.4l-1,2.3l-1.1,2.2l-1.2,2.1l-1.3,2l-1.3,1.9l-1.4,1.8L98,107l-1.8,1.9l-1.8,1.7l-1.9,1.6l-1.9,1.5l-1.9,1.3
		l-1.9,1.2l-1.9,1.1l-1.9,1l-3.1,1.4l-3,1.1l-2.8,0.8c-3.1,0.8-6.2,1.4-9.4,1.7l-0.8,0.1l-0.1,0l-0.1,0l1,0l3.2-0.3l2.3-0.3l2.3-0.4
		l2.4-0.6l2.4-0.7l2.4-0.8c1.2-0.5,2.4-1,3.6-1.5l2.1-1.1l2.1-1.2l2-1.3l2-1.4l1.9-1.5l1.8-1.6l1.7-1.6l1.6-1.7l1.6-1.8l1.5-1.9
		l1.4-1.9l1.2-1.9l1.1-1.9l1-1.9l0.9-1.9l0.8-1.8l0.7-1.8l0.8-2.4l0.7-2.4l0.5-2.4L111,81l0.3-2.4l0.1-2.4l0-2.4l-0.1-2.4l-0.2-2.4
		l-0.3-2.4l-0.4-2.3l-0.5-2.3l-0.7-2.3l-0.8-2.2l-0.9-2.2l-1-2.1l-1.1-2.1l-1.2-2l-1.3-2l-1.3-1.9l-1.4-1.8l-1.5-1.8l-1.6-1.7
		l-1.7-1.6l-1.8-1.5l-1.9-1.5l-1.9-1.4l-2-1.3l-2.1-1.2l-2.2-1.1l-2.3-1l-2.3-0.9l-2.3-0.8l-2.4-0.6l-2.4-0.5l-2.4-0.4l-2.4-0.3
		l-2.4-0.1l-2.3,0L60,25.8L57.7,26l-2.3,0.3l-2.3,0.4l-2.3,0.5l-2.2,0.6l-2.2,0.7l-2.2,0.8l-2.1,0.9l-1.9,1l-1.6,0.9l-1.6,1
		l-1.6,1.1l-1.7,1.2l-1.6,1.3l-1.6,1.4l-1.6,1.5l-1.5,1.6l-1.2,1.4l-1.2,1.4l-1.1,1.5l-1,1.5l-0.9,1.5L21,49.9
		c-0.5,0.9-1,1.8-1.5,2.8l0.7-2.1l2-3.4l0.9-1.3l1-1.4l1.1-1.4c0.6-0.7,1.2-1.5,1.9-2.2l1.6-1.7l1.8-1.6l1.9-1.6l1.9-1.5l2-1.4
		l2-1.3l1.9-1.1l1.9-1l1.6-0.7c2.1-0.9,4.3-1.6,6.5-2.4l1.1-0.3l1.1-0.3l1.2-0.3l1.2-0.2l1.3-0.2l1.3-0.2l1.4-0.1l1.4-0.1l2.3-0.1
		l2.4,0l2.4,0.2l2.5,0.3l2.5,0.4l2.4,0.5l2.4,0.6l2.3,0.8l1.1,0.4l1,0.4l1,0.4l1,0.4l0.9,0.4l0.9,0.4l0.9,0.4l0.8,0.4l7.7,5.3
		c0.5,0.4,0.9,0.8,1.4,1.3l0.5,0.5l1.2,1.1l1.3,1.3l1.4,1.5l1.4,1.7l1.4,1.9l1.4,2.1l1.4,2.3l1.3,2.5l0.9,2l0.9,2.1l0.8,2.2l0.7,2.3
		l0.6,2.4l0.5,2.4l0.4,2.5l0.2,2.5l0.1,2.5l0,2.5l-0.1,2.5l-0.3,2.5l-0.4,2.5l-0.5,2.5l-0.6,2.4l-0.8,2.4l-1,2.7l-1.1,2.5l-1.2,2.4
		l-1.3,2.2l-1.3,2.1l-1.4,1.9l-1.4,1.8l-1.4,1.6l-2.2,2.3l-2.1,1.9l-1.9,1.6l-1.7,1.3c-1.1,0.8-2.2,1.5-3.4,2.3l0.4-0.2
		c1.8-1,3.5-2.2,5.1-3.4l1.9-1.6l2-1.8l2.1-2.1l2.3-2.6l1.5-1.9l1.4-2.1l1.4-2.2l1.3-2.3l1.2-2.4c0.5-1.2,1-2.5,1.5-3.8l0.9-2.9
		l0.7-2.8l0.5-2.7l0.4-2.6l0.2-2.5l0.1-2.3l0-2.1l-0.1-1.9l-0.1-0.9l-0.1-0.9c-0.1-1.2-0.3-2.4-0.5-3.6l-0.3-1.7l-0.4-1.7l-0.4-1.7
		l-0.5-1.7l-0.5-1.7l-0.6-1.7l-0.7-1.6l-0.7-1.6l-1-1.9l-1.1-1.9l-1.2-1.9l-1.2-1.8l-1.3-1.8l-1.4-1.8l-1.5-1.7L97.8,38l1,1l1.2,1.3
		l1.4,1.6l1.4,1.8l1.5,2l1.4,2.2l1.3,2.3l1.2,2.3l0.9,2.1l0.8,2.1l0.7,1.9c0.6,2,1.1,3.9,1.7,5.9l0.2,1.2l0.1,0.8l0.1,0.9l0.1,1
		l0.1,1l0.1,1l0.1,0.9l0.1,2l0,0.1l0,2.7l-0.1,2l-0.2,2.2l-0.3,2.3l-0.4,2.4l-0.6,2.5c-0.4,1.3-0.7,2.6-1.1,3.8l-1.2,3.1l-1.3,3
		l-1.4,2.7l-1.5,2.5l-1.4,2.1l-1.3,1.8l-1.2,1.5l-1,1.1l-0.8,0.9l0.8-0.9l1.6-1.9l1.6-2l1.5-2.1l1.4-2.2l1.3-2.3l1.2-2.3l1.1-2.4
		l1-2.5l0.8-2.5l0.7-2.5L113,84l0.4-2.5l0.3-2.6l0.2-2.6l0-2.5l-0.1-2.5l-0.2-2.5l-0.3-2.5l-0.5-2.4l-0.6-2.4l-0.7-2.4l-0.8-2.3
		l-0.9-2.3l-1-2.2l-1.1-2.2l-1.2-2.1l-1.3-2.1l-1.4-2l-1.5-1.9l-1.6-1.9l-1.7-1.8L97,36.5l-1.9-1.6l-2-1.5l-2.1-1.4l-2.1-1.3
		l-2.2-1.2l-2.3-1.1l-2.4-1l-2.4-0.9l-2.5-0.8l-2.5-0.7l-2.5-0.5L69.7,24l-2.5-0.3l-2.5-0.1l-2.4,0l-2.4,0.1l-2.5,0.2L55,24.2
		l-2.4,0.5l-2.4,0.6l-2.3,0.7l-2.3,0.8l-2.2,0.9l-2.1,1L38.3,30.1z M88.8,38l1.2,0.9l1.4,1.1l1.2,1L88.8,38L88.8,38z M83.6,116.3
		c-0.4,0.2-0.9,0.5-1.3,0.7l-0.1,0l0,0l0,0l0.1,0l0,0h0L83.6,116.3z"/>
	<path class="st2" d="M25.8,41.5c0,0,0.2,52.5,0.5,55.4c0.4,2.9,1.4,7.4,2.5,8.3c1.1,0.9,2.3,3.3,2.5,4.4c0.2,1.1,2.5,6.7,2.5,6.7
		s2,0.5,2.5,2c0.5,1.4,2,3.4,2,3.4l0.2-37.7c0,0-1.3-23.7-2-27.9c-0.7-4.2-1.6-10-1.6-10l-0.9,26.3c0,0-1.3-26.3-1.6-29.3
		c-0.4-3.1-0.7-6.7-0.7-6.7l-1.4,23.4V32.1c0-2.2-1.1-4.7-1.1-4.7l-0.5,24.1l-1.1-15.6l-0.5,8.9L25.8,41.5z"/>
	<path class="st2" d="M33,33.2c0,0,8.1,7.3,8.1,7.2c0-0.1-4.8-1.8-4.1-1.3s6.7,6.3,7,7.2c-0.8-0.8-2.1-1.6-3-2.2
		c-0.4-0.3-0.5,0.3,0.2,1c6.6,6.7,12.8,15.1,18.4,22.1c0,0-8.9,13.6-9.8,15.2c-0.9,1.6,0,2.9-0.4,5.1c-0.4,2.2,0,3.8-0.9,6.3
		c-0.9,2.5-0.7,4,0.2,5.6c0.9,1.6,0.2,3.3,0.5,5.3c0.4,2,0.7,4,1.3,3.1c4.8-10.4,11-20.7,17.4-30.6c0,0,26.3,36.2,29,39.7
		c2.7,3.4,5.8,6.2,7.6,6.3c1.8,0.2,5.8,4.5,5.8,4.5s2.4,2.2,4.2,2.2c1.3,0,2.5-0.1,3.8-0.4C107.7,112,91.6,87,74.9,66.9
		c3.6-4.8,9.8-13.8,15.5-19.2c0.9-0.8,0.7-2.2,1.3-3c4-5.2,4.6-5.9,7.6-9.1c0.9-0.9,0.9-1.5,0.4-1.1c-1.3,1-2.5,2.1-3.7,3.2
		c0.6-1.1,8.1-9.2,9-9.9c0.8-0.8-4.6,2.4-4.6,2.5s10.1-10.1,10.1-10.1s-10.1,8.6-16.1,15.5c-2.8,3-13.5,16.4-13.5,16.4
		c-0.7,0.8-1.7,1-0.3-0.9c8.3-10.9,14.5-17.2,23-27.4c-3-0.1-17.6,16.2-24,25.1c-1,1.4-1.9,1.6-0.6-0.4c1.1-1.8,3.1-5.6,7.3-10
		c-2-0.8-12.7,11.8-18.7,20.1c-4.7-5.1-9.3-9.7-13.9-13.6c3.6,5,10.1,12.9,10.9,14.3c0.9,1.6,0,1.6-0.7,0.5
		C59.2,52.8,42.2,34.3,39.2,35c6.5,7.7,17.1,18.7,23.2,27c1,1.4,0.1,1.5-0.4,0.8c0,0-13.7-16.7-15.9-18.8C41.5,39,33,33.2,33,33.2z"
		/>
	<path class="st2" d="M127.1,57.5c0,0,3.7,3.4,3.8,3.3c0-0.1-2.2-0.9-1.9-0.6c0.3,0.2,3.1,2.9,3.2,3.4c-0.4-0.4-0.9-0.7-1.4-1
		c-0.2-0.1-0.2,0.1,0.1,0.4c3.1,3.1,5.9,7,8.5,10.2c0,0-4.1,6.3-4.5,7.1c-0.4,0.8,0,1.3-0.2,2.3s0,1.8-0.4,2.9
		c-0.4,1.2-0.3,1.8,0.1,2.6c0.4,0.8,0.1,1.5,0.3,2.4c0.2,0.9,0.3,1.8,0.6,1.4c2.2-4.8,5.1-9.6,8-14.2c0,0,12.2,16.8,13.4,18.4
		c1.3,1.6,2.7,2.9,3.5,2.9c0.8,0.1,2.7,2.1,2.7,2.1s1.1,1,1.9,1c0.6,0,1.2-0.1,1.8-0.2c-4.9-8.1-12.4-19.7-20.1-29
		c1.7-2.2,4.5-6.4,7.2-8.9c0.4-0.4,0.3-1,0.6-1.4c1.8-2.4,2.1-2.7,3.5-4.2c0.4-0.4,0.4-0.7,0.2-0.5c-0.6,0.5-1.2,1-1.7,1.5
		c0.3-0.5,3.8-4.2,4.2-4.6s-2.1,1.1-2.1,1.2s4.7-4.7,4.7-4.7s-4.7,4-7.5,7.2c-1.3,1.4-6.3,7.6-6.3,7.6c-0.3,0.4-0.8,0.5-0.1-0.4
		c3.8-5,6.7-7.9,10.7-12.7c-1.4,0-8.2,7.5-11.1,11.6c-0.5,0.7-0.9,0.7-0.3-0.2c0.5-0.8,1.4-2.6,3.4-4.6c-0.9-0.4-5.9,5.4-8.7,9.3
		c-2-2.2-4.2-4.3-6.4-6.3c1.7,2.3,4.7,6,5,6.6c0.4,0.7,0,0.8-0.3,0.2c-2.2-3.2-10-11.8-11.4-11.4c3,3.6,7.9,8.7,10.7,12.5
		c0.5,0.7,0,0.7-0.2,0.4c0,0-6.3-7.7-7.3-8.7C131,60.2,127.1,57.5,127.1,57.5z"/>
	<path class="st2" d="M165.2,63.7l0.3-0.1l0.5,0.3l0.5,0.2l0.1,0.7l0.1,0.1l-0.1,0.2l0,0.9l-0.3,0.9l-0.8,0.5l-0.8,0.1l-0.6-0.2
		l-0.8-1.2l0-0.6l0-0.6l0.2-0.6l0.4,0l0-0.2l0.4-0.3l0.2,0l0.2-0.2L165.2,63.7L165.2,63.7z M162.9,70.9l0.7-0.3l0.4,0.2l0.2-0.1h0.2
		l0.6,0.5l0.3,0.2l0.5,1l0,0.7l0,0.7l-0.7,1.3l-1.2,3.3l-0.3,2.1l-0.1,0.7l0.4,0.2h1.3l1.7-0.4l-0.3,0.6V82l-0.5,0.7l-0.3,0.3
		l0.1,0.2l-0.5,0.3H165l-0.1,0.3l-0.6,0.2l-0.1,0.2l-1.4,0.7l-0.5,0.4l-1,0.1l-0.1,0.1l-0.2-0.1l-0.9-0.4l-1-0.9l-0.6-0.8l-0.3-0.7
		l-0.2-1.6l0.1-2l0.3-1.2l1-2.2l1.4-2.2l1.2-1.5L162.9,70.9L162.9,70.9z M178,68l1-0.2l0.6,0l1.2,0.5l0.1,0.1l0.5,0.5l0.9,1.5l0,1
		l-0.4,1.4l-0.1,0.4l-0.5,1l-0.3,0.6l-0.2,0.5l-0.4,0.7l-0.1,0.7l-0.4,0.9l0.1,0.3l-0.4,0.5l0.1,0.2l-0.2,0.1v0.2h0.2l4.3-5.3
		l1.8-1.9l0.9-0.7l1.2-0.8l0.5-0.3l0.6,0l0.1-0.2l0.8-0.2l0.9,0l0.3,0.2l0.5,0l0.1,0.2l0.3,0.1l0.5,0.5l0.9,1.9l-0.1,0.9l0.1,0.2
		l-0.3,1.1l-0.4,0.6l-0.3,0.5l-0.3,0.8l-0.3,0.6l-0.4,0.3l-0.2,0.3l-0.4,0.4l-0.9,0.6l-0.6,0.8l0.1,0.2l-0.3,0.2l-0.5,1l-0.7,1.2
		l-0.4,0.6l-0.5,0.9l-0.1,0.7l-0.4,1.1l-0.4,0.4l0.1,0.4l-0.3,0.8l0,0.7l-0.1,0.4l-0.2,0.1l0,1.1l-0.3,0.4l-0.1,0.6l-0.2,0v0.1h-0.2
		l-0.2,0.1l-0.1-0.2l-0.1-0.7l-0.1-0.4l0-1l0.1-0.3l-0.1-0.2l-0.1-0.5l0.3-1.1l0-0.7l0-0.6l0.1-0.5l0.2-0.2l0-0.8l0.1-0.1l0.5-1.6
		l0.6-2l0.8-1.9v-0.1l0-0.2l0.2-0.2l0.2-0.6l0.4-1l0.2-0.1v-0.2l0.4-0.8l0.2-0.1l0-0.4l-0.3,0.1l-0.5,0.6l-0.4,0.9l-0.3,0.2
		l-0.1,0.2l-0.4,0.2l0,0.3l-0.5,0.7l-0.5,0.5l-0.4,0.9l-0.3,0.9l-0.7,0.8l-0.5,0.6l-0.2,0.3l-0.3,0.7l-1.3,1.2l-1,0.7l-0.6,0.1
		l-0.4,0.1l-0.3,0.1l-0.5-0.1l-0.5-0.2l-1-0.9l-0.9-1.4l-0.1-0.4l0.1-0.2l-0.2-0.6l0.2-2.3l0.2-2l0.2-0.8V75l0.1-0.5l0.2-0.9l-1.4,2
		l-0.1,0.1l-1,1.9l-1,1.6l-0.3,0.7l-0.1,0.4l-0.3,0.8l-0.1,0.2l0,0.3l-0.2,0.4l-0.2,0.6l-0.2,0.2l-0.4,0.8l-0.1,0.6l-0.2,0.1
		l-0.3,0.5l-0.4,0.1l0,0.2l-0.4,0l-0.1-0.1l-0.9,0l-0.4-0.5l-0.1-0.2l-0.3-0.2l-0.3-0.4l-0.1-0.2l-0.3-0.1l0-0.4l0-0.2l0.2-0.1
		l0-0.7l0.3-0.6l0.4-1.8l0.1-0.2l0.8-2.2l0.2-0.5l1-2.2l2.2-3.9l0.5-0.8l0.4-0.5l0.4-0.3l0.5,0l0.6-0.1l0.1,0.1l0.4,0.3l0.2-0.1
		l1.3-0.9L178,68L178,68z M207.1,72.7H207l-1,0.1l-1.4,0.5l-1.8,0.8l-1.8,1.3l-0.9,0.8l-1.3,1.5l0.9,0l1.6-0.5l1.5-0.7l1.2-0.7
		l1-0.8l0.9-0.8L207.1,72.7L207.1,72.7z M206.3,70.4l1.4-0.4l1.4,0.2l0.3,0.4l0.1,0.5l-0.2,0.1l0.2,0.7l-0.1,0.9l-0.3,0.6l-0.1,0.3
		l-0.1,0.2l-0.6,0.8l-0.1,0.3l-0.3,0.4l-0.5,0.4l-0.3,0.2l-0.7,0.7l-0.9,0.8l-0.8,0.6l-0.1,0.2l-0.5,0.2H204l-0.5,0.3l-0.4,0.2
		l-1.3,0.8l-0.6,0.2l-0.1,0.2l-1.9,0.6l-0.9,0l-0.3,0.6l0.1,0.2l0.2,0.4l1,0.6l1.6,0.5l1.7,0.3l0.1,0.2l2.9,0.3l2.2,0l2-0.2l1-0.2
		h0.2v0.2l-1.1,0.6l-1,0.5l-0.1,0.1l-0.5,0.1l-0.6,0l-0.2,0.2l-1,0.3l-0.3,0l-0.2,0.2l-0.3,0l-0.4-0.1l-0.1,0.1l-0.4,0l-0.2,0.2
		l-0.9,0.1l-0.6,0.1l-0.9,0.1l-0.5-0.1l-0.1,0.1l-0.8,0l-0.2,0.1l-0.3-0.1l-0.4,0l-0.2-0.1l-0.6,0l-0.1-0.1l-0.3,0l-0.5-0.2
		l-0.1-0.1v-0.1l-0.1-0.1l-0.5,0l-0.1-0.1l-0.3,0.1l-0.3-0.2l-0.5-0.5l-0.6-0.7l-0.5-0.8l-0.5-1.4l0-0.5l0.1-0.2l-0.2-0.8v-0.2
		l-0.1-0.2l0.1-0.3l0-0.6l0.1-0.7l0.9-1.2l1.1-1.3l0.8-0.6l0.7-0.7l0.5-0.4l2.8-1.8l2-1.1L206.3,70.4L206.3,70.4z M226.6,81.9
		l-0.4,1.5l0,2c0.4,3.6,1.6,5.8,3.8,8.5l0.2,0.5l-0.4,0.1l3,3.7l-1-0.2l-0.3-0.3l-0.4,0v0.1l-0.2,0.1l-2.3-2.9l-0.6-0.2
		c-1.9-2-2.3-3.6-3.7-5.8c-0.3-0.5,0.2,1.3-0.1,0.8c-0.9-1.6-1.4-3.4-1.6-5.3l-0.1-0.4l0.1-0.2l-0.2-0.6l0.4-3.1l-0.2-0.1l0.4-0.9
		l-0.1-0.2l0-0.2l0.2-0.1l0.1-1.3l0.2-0.9l0.1-0.7l0.2-0.8l0-0.4l-0.2-0.6l-0.4-0.4l-0.8-0.1l-1,0.2l-0.3,0.8l-0.3,0.7l-0.4,0.5
		l-0.4,1.2l-0.3,0.5l-0.3,0.8l-0.7,1.5l-0.8,1.7l-0.3,0.7l-0.1,0.4l-0.5,1l0,0.3l-0.2,0.4l-0.6,1.3l-0.1,0.1l-0.3,0.5l-0.5,0.1
		l0,0.2l-0.4-0.1l-0.9,0l-0.3-0.5l-0.2-0.1l-0.3-0.2l-0.3-0.5l-0.1-0.2l-0.3-0.1l-0.1-0.6l0.3-0.4l0.4-1.8l0.1-0.2l0.8-2.2l0.2-0.5
		l0.9-2.4l0.8-2.8l1.1-2.6l0.5-0.7l0.8-0.3l1,0.1l0.1,0.1l0.5-0.1l0.2,0.1l0.5,0.6l0.1,0.6l1.3-0.9l0.5-0.4l1-0.2l1.8-0.3l2.2,0.9
		l0.1,0.1l0.6,0.5l0.1,0.2l0.5,0.8l0.1,1.4l-0.2,1.5l-0.2,0.5l-0.4,0.8l-0.5,1.4l-0.4,1.1l-0.3,1.2l-0.2,0.3l-0.2,0.3l0.1,0.1l0,0.5
		L226.6,81.9L226.6,81.9z M243.2,74.5H243l-1,0.1l-1.4,0.5l-1.8,0.8l-1.8,1.3l-0.9,0.8l-1.3,1.5l0.9,0l1.6-0.5l1.5-0.7l1.2-0.7
		l1-0.8l0.9-0.8L243.2,74.5L243.2,74.5z M242.4,72.2l-3,1.1l-2,1.1l-2.8,1.8l-0.5,0.4l-0.7,0.7l-0.8,0.6l-1.1,1.3l-0.9,1.2l-0.1,0.7
		l0,0.6l-0.1,0.3l0.1,0.2v0.2l0.2,0.8l-0.1,0.2l0,0.5l0.5,1.4l0.5,0.8l0.6,0.7l0.5,0.5l0.3,0.2l0.3-0.1l0.1,0.1l0.5,0l0.1,0.1v0.1
		l0.1,0.1l0.5,0.2l0.3,0l0.1,0.1l0.6,0l0.2,0.1l0.4,0l0.3,0.1l0.2-0.1l0.8,0l0.1-0.1l0.5,0.1l0.9-0.1l0.6-0.1l0.9-0.1l0.2-0.2l0.4,0
		l0.1-0.1l0.4,0.1l0.3,0l0.2-0.2l0.3,0l1-0.3l0.2-0.2l0.6,0l0.5-0.1l0.1-0.1l1-0.5l1.1-0.6v-0.1l-0.2,0l-1,0.2l-2,0.2l-2.2,0
		l-2.9-0.3l-0.1-0.2l-1.7-0.3l-1.6-0.5l-1-0.6l-0.2-0.4l-0.1-0.2l0.3-0.6l0.9,0l1.9-0.6l0.1-0.2l0.6-0.2l1.3-0.8l0.4-0.2l0.5-0.3
		l0.2,0l0.5-0.2l0.1-0.2l0.8-0.6l0.9-0.8l0.7-0.7l0.3-0.2l0.5-0.4l0.3-0.4l0.1-0.3l0.6-0.8l0.1-0.2l0.1-0.3l0.3-0.6l0.1-0.9
		l-0.2-0.7l0.2-0.2l-0.1-0.5l-0.3-0.4l-1.4-0.2L242.4,72.2L242.4,72.2z M266.9,71.4h1.3l2.1,0.2l0.6,0.1l0.9,0.6l0.4,0.4l0.3,0.7
		l-0.1,0.7l0.1,0.2l0.1,0.1l0.1,0.6l-0.4,0.6l-1.4,0.8l-0.5,0.3l-0.5,0.3l-1.1,0.6l-0.5,0.3l-0.2,0.1l-0.5,0.4l-0.5,0.1l-1.4,0.4
		l-0.9,0.5l-0.7,0.3l-1,0.4l-0.3,0l-0.4,0.3l-0.8,0.3l-0.7,0.5l-0.5,0.2l-0.4,0.2l-0.8,0.5l-0.4,0.1l-0.5,0.4l-0.7,0.3l-0.2,0.2
		l-0.5,0.1l-0.4,0.3l-0.5,0.3l-0.4,0l-0.5,0.5l0.7-0.2l0.2,0l0.4-0.1l2.2-0.5l1.2,0l1.2-0.2l1.4-0.1l0.2-0.1l0.3,0.2l0.4-0.2
		l0.2,0.1l0.2-0.1l1,0.1l1.5-0.1l1,0l0.7,0l0.3,0l0.2,0.2l5.5-0.1l0.7,0.2l0.1,0l0.2,0.2l0.2,0l0.2,0l1.9,0.3h0.1l3.2,0.4l0.7,0.3
		l0.3,0.3l2.8,1.1l0.4,0.5l0.9,0.9l0.3,0.5l0,0.1l-0.3-0.1l-0.1-0.1h-0.3l-0.5-0.3l-0.7-0.1l-2.5-1l-1.3-0.1l-0.2,0l-4-0.4l-1.9-0.2
		l-0.4,0l0,0.1h-1.1l-0.3,0.1l-0.1,0l-3.3,0.4l-0.5,0l-1.3,0.2l-0.5,0.2l-0.5-0.1l-0.2,0.2l-0.4-0.2l-0.1,0.1l-0.3-0.1l-0.8,0.1
		l-0.1,0.1l-0.2-0.1l-0.7,0.3l-0.4-0.1l-0.7,0.3l-0.2,0.1l-2,0.5l-0.4,0.1l-1.2,0.2l-0.6,0l-0.7,0.1l-1.6,0.4l-0.2,0l-2.7,0.6
		l-2.1,0.2l-0.8-0.2l-1.7-0.5l-0.6-0.5l0-0.8l0-0.2l0.2-0.3l-0.1-0.3l0.2-0.3l0.3-0.5l0.6-0.6l2.6-1.4l3-1.8l0.2-0.1l2.1-1.3
		l1.6-0.9l1-0.7l6.1-3.7l-0.8,0.1l-3.1,0.3l-0.9,0l-2.1,0l-2.2-0.1l-1.6-0.3l-0.8-0.3l-0.3-0.2l0.1-0.2l-0.1-0.1l0.1-0.6l1.4-1
		l3.4-0.8l3.2-0.6L266.9,71.4z"/>
</g>
</svg>
