<?xml version="1.0" encoding="utf-8"?>
<!-- Generator: Adobe Illustrator 24.1.2, SVG Export Plug-In . SVG Version: 6.00 Build 0)  -->
<svg version="1.1" id="Capa_1" xmlns="http://www.w3.org/2000/svg" xmlns:xlink="http://www.w3.org/1999/xlink" x="0px" y="0px"
	 width="300px" height="150px" viewBox="0 0 300 150" style="enable-background:new 0 0 300 150;" xml:space="preserve">
<style type="text/css">
	.st0{fill:#DC0014;}
	.st1{fill:#1D1D1B;}
</style>
<g>
	<g>
		<path class="st0" d="M19.5,51v31.8l22.6,16.5l22.6-16.5V51H19.5z M57.8,71.9l-9,9V61.3l-2.1,2.1v8.6l-9,9V61.3l-2.1,2.1v8.6l-9,9
			V63.8l4.9-4.9h26.3V71.9z"/>
	</g>
	<path class="st1" d="M247,58.4H233c-1.4,0-2.4,0-3.2,0.2l0,0l0,0c-0.8,0.2-1.4,0.5-2.2,0.8c-2.4,1.3-4,3-4.9,5.2l-3.6,8.7l-0.2,0.6
		c-1,2.4-1.1,4.1-0.3,5.4c0.2,0.2,0.3,0.5,0.6,0.6c0.5,0.3,0.8,0.6,1.3,0.6c0.8,0.2,2.2,0.3,4.3,0.3h13.8h0.2
		c5.2,0,8.6-2.1,10.3-6.5l2.5-6l1.1-2.7c0.5-1.3,1-2.4,1-3.3l0,0l0,0c0-1-0.2-1.7-0.6-2.4c-0.5-0.6-1.1-1.1-1.7-1.3l0,0l0,0h-0.2
		C250,58.6,248.7,58.4,247,58.4L247,58.4z M231.1,76.2c-1.1,0-1.4-0.3-1.4-0.3c0-0.2-0.2-0.6,0.3-1.6l3.6-8.6
		c0.5-1.1,1.1-1.7,1.9-2.1l0,0l0,0c0.3-0.2,0.8-0.2,1.3-0.2h2.7c1.3,0,1.6,0.3,1.7,0.5c0,0.2,0.2,0.5-0.3,1.7l-3.5,8.1
		c-0.3,1-0.8,1.6-1.3,1.9c-0.3,0.2-0.5,0.3-0.8,0.3c-0.3,0-0.8,0.2-1.1,0.2H231.1L231.1,76.2z M207.4,50.8h-11.6l-13,30.2h22
		c1.4,0,2.7-0.2,3.8-0.5c1.1-0.3,2.1-0.8,3-1.6c1.7-1.3,3-3,4-5.4l3.5-8.1l0,0l0,0c0.8-2.1,1-3.6,0.5-4.8l0,0l0,0
		c-0.3-0.5-0.6-1-1-1.1c-0.8-0.6-2.2-1-4.1-1h-10.5L207.4,50.8z M198.2,76.2c-0.6,0-1-0.2-1.1-0.3c-0.2-0.2-0.2-0.6,0.2-1.1l4-9.5
		c0.3-0.8,0.8-1.3,1.4-1.6c0.5-0.2,1-0.2,1.6-0.2h2.7c0.8,0,1.1,0.2,1.3,0.3c0,0,0.2,0.3-0.3,1.4l-3.6,8.7c-0.5,1-0.8,1.4-1.1,1.6
		l0,0l0,0c0,0-0.2,0.2-0.3,0.2c0,0,0,0-0.2,0c-0.3,0.2-0.8,0.2-1.4,0.2h-2.9C198.4,76.2,198.4,76.2,198.2,76.2L198.2,76.2z
		 M258.7,58.6L249,81.1h11.6l5.7-13.1c0.3-0.8,1-1.4,1.6-1.9c0.8-0.5,1.7-0.8,2.9-0.8h7l2.9-6.8l0,0h-21.9V58.6z M172.6,58.4
		L172.6,58.4L172.6,58.4c-4.4,0-7.8,2.1-9.8,6.2l-4.1,9.7l-0.2,0.3c-0.6,1.6-0.8,2.9-0.3,4.1c0.2,0.3,0.3,0.6,0.5,1l0,0l0,0
		c0.5,0.8,1.3,1.1,2.2,1.3c0,0,1.1,0.3,3,0.3c4,0,16,0,16,0l2.1-4.9h-10.3c-1.6,0-1.9-0.3-1.9-0.3l0,0l0,0c-0.2-0.2-0.2-0.5,0.2-1.4
		l3.6-8.7c0.3-1,0.8-1.4,1.3-1.9c0.8-0.3,1.6-0.5,2.7-0.5h10.1l2.1-4.9L172.6,58.4z M130.4,63.5h16.5c1,0,1.3,0.2,1.3,0.2
		c0.3,0.2,0.2,0.5,0,0.6c-0.3,0.6-0.6,1.1-1.1,1.3c-0.3,0.2-0.8,0.2-1.7,0.2h-10.1c-1.9,0-3.5,0.5-4.9,1.4c-1.4,1-2.4,2.2-3.2,4
		l-1.6,3.6c-0.5,1.3-0.8,2.2-0.8,3s0.2,1.6,0.5,2.2c0.2,0.2,0.3,0.3,0.5,0.5c0.3,0.3,0.8,0.5,1.3,0.6c0.6,0.2,1.7,0.3,3,0.3h22.2
		h0.3l0.2-0.3l6.7-15.7c0.8-1.9,0.8-3.6,0-4.9c0-0.2-0.2-0.2-0.2-0.2c-0.5-0.6-1-1.1-1.6-1.3c-0.6-0.2-1.7-0.3-3.3-0.3h-21.5
		L130.4,63.5z M138.5,76.2c-0.8,0-1.3-0.2-1.3-0.3c-0.2-0.2-0.2-0.6,0.3-1.9l0.5-1c0.5-1,1-1.6,1.3-2.1c0.5-0.3,1.1-0.5,1.9-0.5h4.6
		l-1.4,3.2c-0.3,1-0.8,1.6-1.3,2.1c-0.5,0.3-1,0.5-1.6,0.5H138.5L138.5,76.2z M122.2,58.4c0,0,2.4,0,3.3,0.3
		c0.5,0.2,0.8,0.5,1.1,0.6c0.3,0.3,0.5,0.6,0.6,1c0.3,0.8,0.5,1.6,0.3,2.5c-0.2,0.8-0.3,1.6-0.8,2.9l-6.5,15.2h-11.6l6.7-15.4
		c0.6-1.4,0.5-1.7,0.5-1.9c-0.3-0.2-0.8-0.2-1.4-0.2h-2.7c-1,0-1.6,0.2-1.9,0.3c-0.3,0.3-0.8,1-1.1,1.9l-6.7,15.4H90.5l6.7-15.5
		c0.6-1.3,0.5-1.7,0.5-1.7l0,0l0,0c-0.2-0.3-0.5-0.3-1.1-0.3h-3.2c-0.6,0-1.3,0.2-1.6,0.5c-0.3,0.3-0.8,1-1.1,1.7l-6.7,15.4H72.5
		l9.7-22.5h40.1V58.4z"/>
</g>
</svg>
