<?xml version="1.0" encoding="utf-8"?>
<!-- Generator: Adobe Illustrator 24.1.2, SVG Export Plug-In . SVG Version: 6.00 Build 0)  -->
<svg version="1.1" id="Capa_1" xmlns="http://www.w3.org/2000/svg" xmlns:xlink="http://www.w3.org/1999/xlink" x="0px" y="0px"
	 width="300px" height="150px" viewBox="0 0 300 150" style="enable-background:new 0 0 300 150;" xml:space="preserve">
<g>
	<polygon points="16.3,76.3 4,63.8 2.6,63.8 2.6,86.1 7,86.1 7,73.1 19.6,86.1 20.8,86.1 20.8,63.8 16.3,63.8 	"/>
	<path d="M49.5,63.4c-6.4,0-11.5,5.2-11.5,11.5s5.2,11.5,11.5,11.5S61.1,81.3,61.1,75S55.9,63.4,49.5,63.4z M49.5,81.9
		c-3.9,0-7-3.1-7-7c0-3.9,3.1-7,7-7s7,3.1,7,7S53.4,81.9,49.5,81.9z"/>
	<path d="M93,70.5c0-3.7-3-6.7-6.7-6.7H78v22.3h4.5v-8.9h2.2l4.2,8.9h4.7l-4.5-9.5C91.4,75.5,93,73.2,93,70.5z M86.4,72.7h-4v-4.5h4
		c1.3,0,2.2,1,2.2,2.3S87.7,72.7,86.4,72.7z"/>
	<polygon points="108,68.3 114.1,68.3 114.1,86.1 118.6,86.1 118.6,68.3 124.7,68.3 124.7,63.8 108,63.8 	"/>
	<path d="M190.7,67.1c-1-1-2.2-1.9-3.5-2.4c-1.3-0.6-2.9-0.8-4.3-0.8h-6.3v22.3h1.9l0,0h4.5c1.5,0,2.9-0.3,4.3-0.9
		c1.3-0.5,2.5-1.3,3.5-2.4c1-1,1.9-2.2,2.4-3.5c0.6-1.3,0.9-2.9,0.9-4.4s-0.3-2.9-0.9-4.3C192.5,69.3,191.7,68.1,190.7,67.1z
		 M182.9,81.6H181V68.3h1.9c3.7,0,6.7,3,6.7,6.7S186.5,81.6,182.9,81.6z"/>
	<polygon points="210.8,86.1 225.7,86.1 225.7,81.6 215.3,81.6 215.3,76.8 223.9,76.8 223.9,72.4 215.3,72.4 215.3,68.3 225.7,68.3 
		225.7,63.8 210.8,63.8 	"/>
	<path d="M246,75c0-6,6.5-8.6,10.9-5.8l2.9-3.3c-1.9-1.5-4.5-2.4-7.2-2.4c-6.4,0-11.5,5.2-11.5,11.5c0,6.4,5.2,11.5,11.5,11.5
		c2.8,0,5.4-1,7.4-2.7l-2.9-3.3C252.9,83.8,246,81.3,246,75z"/>
	<path d="M285.9,63.4c-6.4,0-11.5,5.2-11.5,11.5s5.2,11.5,11.5,11.5c6.4,0,11.5-5.2,11.5-11.5S292.2,63.4,285.9,63.4z M285.9,81.9
		c-3.9,0-7-3.1-7-7c0-3.9,3.1-7,7-7s7,3.1,7,7S289.8,81.9,285.9,81.9z"/>
	<polygon points="154.5,72.4 146.3,72.4 141.8,72.4 141.8,86.1 146.3,86.1 146.3,76.8 154.5,76.8 154.5,86.1 159,86.1 159,63.9 
		154.5,63.9 	"/>
</g>
</svg>
