<svg xmlns="http://www.w3.org/2000/svg" width="144.079" height="62.847" viewBox="0 0 144.079 62.847"><path d="M324.6,268.014v.475a1.27,1.27,0,0,1-1.27,1.27H312.681v5.364h9.05a1.27,1.27,0,0,1,1.27,1.27v.476a1.27,1.27,0,0,1-1.27,1.27h-9.05v5.885h10.645a1.27,1.27,0,0,1,1.27,1.27v.476a1.27,1.27,0,0,1-1.27,1.27H310.819a1.27,1.27,0,0,1-1.27-1.27V268.014a1.27,1.27,0,0,1,1.27-1.27h12.507A1.27,1.27,0,0,1,324.6,268.014Zm-24.5,8.92a11.2,11.2,0,0,0-2.565-1,27.631,27.631,0,0,0-3-.609,15.6,15.6,0,0,1-3.841-1.031,2.335,2.335,0,0,1-.1-4.291,7.048,7.048,0,0,1,3.391-.739,7.13,7.13,0,0,1,3.48.827,7.508,7.508,0,0,1,1.639,1.2,1.26,1.26,0,0,0,1.785-.039l.414-.43a1.251,1.251,0,0,0,.041-1.715,7.825,7.825,0,0,0-2.458-1.729,11.5,11.5,0,0,0-4.813-.926,11.344,11.344,0,0,0-4.086.709,6.971,6.971,0,0,0-2.943,2.015,4.732,4.732,0,0,0-1.088,3.131,4.674,4.674,0,0,0,2.03,4.1,12.962,12.962,0,0,0,5.451,1.929,18.784,18.784,0,0,1,4.319,1.043,2.227,2.227,0,0,1,1.446,2.84,1.2,1.2,0,0,1-.236.488,4.6,4.6,0,0,1-2.383,1.471,8.935,8.935,0,0,1-2.45.334,7.841,7.841,0,0,1-4.016-.958,11.264,11.264,0,0,1-2.162-1.671,1.279,1.279,0,0,0-1.9.1l-.442.557a1.268,1.268,0,0,0,.08,1.679,9.7,9.7,0,0,0,3.222,2.181,13.251,13.251,0,0,0,5.072.928,11.907,11.907,0,0,0,4.567-.8,6.693,6.693,0,0,0,2.971-2.248,5.642,5.642,0,0,0,1.045-3.391,4.06,4.06,0,0,0-.667-2.379A5.21,5.21,0,0,0,300.1,276.934Zm55.643-8.675L344.305,281.85a.634.634,0,0,1-.786.151l-11.465-6.142a.635.635,0,0,0-.935.56v9.831a.635.635,0,0,0,.635.635h1.587a.635.635,0,0,0,.635-.635v-5.561a.334.334,0,0,1,.492-.295l9.745,5.221a.635.635,0,0,0,.786-.151l8.414-10a.334.334,0,0,1,.59.215V286.25a.635.635,0,0,0,.635.635h1.587a.635.635,0,0,0,.635-.635V268.668A.635.635,0,0,0,355.74,268.259Zm73.665,8.63a10.163,10.163,0,0,1-.826,4.1,9.995,9.995,0,0,1-2.333,3.319,10.871,10.871,0,0,1-3.567,2.218,12.337,12.337,0,0,1-4.494.8,12.47,12.47,0,0,1-4.551-.8,10.641,10.641,0,0,1-3.553-2.218,10,10,0,0,1-2.318-3.319,10.273,10.273,0,0,1,2.318-11.526,10.785,10.785,0,0,1,3.553-2.218,12.457,12.457,0,0,1,4.272-.784c1.2-3.074,3.114-9.411.363-13.1-2.064-2.769-6.454-3.6-13.051-2.466-11.52,1.976-17.393,1.718-20.274-.89-1.486-1.343-2.182-3.341-2.121-6.088-6.4-1.3-13.823-2.93-17.472-3.892-.061.769-.375.929-.375.929a4.942,4.942,0,0,1,3.168,1.579,4.433,4.433,0,0,1,.977,1.444c.463,1.053,1.1,1.219,1.41,1.228a2.3,2.3,0,0,1,.572.082,4.159,4.159,0,0,1,2.95,2.324,5.691,5.691,0,0,0,2.723,2.421c2.118.908,1.816,3.631,1.816,3.631-.3,1.816-2.421,1.211-2.421,1.211a6.335,6.335,0,0,1-3.631-2.421,1.406,1.406,0,0,0-.774-.6,1.366,1.366,0,0,0-.968.115,5.51,5.51,0,0,1-4.4-.314.938.938,0,0,0-.472-.088c-2.718.178-3.819-.514-4.158-.8a.672.672,0,0,1-.167-.245c-.212-.49-.526-.4-.714-.294-.137.082-.357.209-.5.276l-3.313,1.6a2.116,2.116,0,0,1-.406.139l-.06.015a.532.532,0,0,0-.405.505,23.45,23.45,0,0,1-.3,2.723,11.067,11.067,0,0,1-1.4,4.4,1.129,1.129,0,0,0-.169.381,4.111,4.111,0,0,1-.756,1.673h0a1.387,1.387,0,0,1-1.3.505.773.773,0,0,0-.084,0,1.034,1.034,0,0,0-.517.753,6.055,6.055,0,0,1-.266.859.607.607,0,0,1-.218.282c-.336.236-.671.472-1,.7a.6.6,0,0,1-.436.106,2.609,2.609,0,0,1-1.465-.811s0,0,0,0a.874.874,0,0,1-.276-.282c-.039-.039-.079-.082-.115-.121a11.868,11.868,0,0,1-1.51-2.061,2.765,2.765,0,0,1-.311-1.356c.009-.445.015-.883,0-1.322l-.148-.784a2.259,2.259,0,0,0-.042-.405,2.625,2.625,0,0,1-.039-.436,5.8,5.8,0,0,0-.188-.563,1.309,1.309,0,0,1,.094-.769c.26-.911.617-1.794.793-2.72.027-.142.064-.291.1-.436a9.425,9.425,0,0,0-.024-1.486,3.828,3.828,0,0,0-.539-1.713c-1.211-1.815-.606-2.723-.606-2.723.151-.606-.075-.832-.339-.908a.8.8,0,0,0-.762.233,4.87,4.87,0,0,1-2.227.977,1.391,1.391,0,0,0-.793.524,2.09,2.09,0,0,0-.339.738,2.507,2.507,0,0,0-.079.553A3.478,3.478,0,0,1,339.407,252c-1.21.605-1.21,2.421-1.21,2.421,0,1.211-1.595,2.609-2.572,2.95-.412.146-.638,1.289-.714,1.837a1.949,1.949,0,0,0,.006.593c.13.935-.654.671-.654.671-.605-.908-.605.3-.605.3,0,1.356-.726,1.256-.881,1.22a.038.038,0,0,0-.045.018c-.763,1-1.093.275-1.171.039a.047.047,0,0,0-.075-.015c-.648.6-.8-.263-.841-.711a1.408,1.408,0,0,1,.03-.436,10.739,10.739,0,0,1,.941-2.427,3.01,3.01,0,0,1,.369-.566,3.834,3.834,0,0,0,.765-2.872,4.379,4.379,0,0,1,.908-3.026,8.078,8.078,0,0,0,1.211-3.026c.3-4.539,2.118-5.447,2.118-5.447a7.818,7.818,0,0,0,2.339-2.276c.043-.109.082-.218.115-.33a7.046,7.046,0,0,1,1.4-3,10.321,10.321,0,0,1,18.806-8.228.1.1,0,0,0,.066.045,2.441,2.441,0,0,1,1.365-.418,11.316,11.316,0,0,1,1.48.133,1.745,1.745,0,0,0,1.21-.036,6.568,6.568,0,0,1,1.483-.581,11.769,11.769,0,0,1,2.935-.309,5.924,5.924,0,0,1,2.515.7,3.893,3.893,0,0,0,2.75.23c1.816-.605,3.631.908,3.631.908a4.272,4.272,0,0,1,3,.239,1.711,1.711,0,0,1,.648.608,3.4,3.4,0,0,0,1.655.6,4.151,4.151,0,0,1,1.119.357,2.665,2.665,0,0,1,1.035.781.672.672,0,0,1-.351,1.01,3.923,3.923,0,0,1-1.664.037s.3.908-.606.605-.908-.53-.908-.53c-.3-.605-1.21-.075-1.21-.075a3.972,3.972,0,0,1-2.723-.3c-.605-.3-3.328.605-3.328.605-1.513.606-3.934-.3-3.934-.3s-2.118-.606-2.723.605a4.311,4.311,0,0,1-2.127,1.7.743.743,0,0,0-.46.606,2.76,2.76,0,0,0,.475,1.495c4.448,1.2,11.841,2.787,17.98,4.039a5.252,5.252,0,0,1,3.268-3.455c5.247-2.415,15.169-1.468,18.473.974a2.7,2.7,0,0,1,1.332,2.569,3.036,3.036,0,0,1-1.471,2.194c-3.192,2.057-11.807,1.122-20.286-.517-.012,2.182.521,3.694,1.649,4.714,2.47,2.239,8.167,2.4,19.043.53,7.183-1.232,12.055-.212,14.476,3.038,3.047,4.1,1.313,10.554.018,14.025a11.867,11.867,0,0,1,3.214.733,11.021,11.021,0,0,1,3.567,2.218,10.041,10.041,0,0,1,3.159,7.423Zm-45-34.16c8.457,1.652,16.615,2.548,19.369.769a1.6,1.6,0,0,0,.817-1.162q.077-.581-.751-1.2c-2.977-2.2-12.267-3-16.993-.823A3.968,3.968,0,0,0,384.4,242.729Zm-26.244-8.1a11.753,11.753,0,0,0-.584-2.46.794.794,0,0,0-.084-.178.051.051,0,0,0-.021-.03.641.641,0,0,0-.514-.251c-.127-.015-.263-.024-.406-.03a10.781,10.781,0,0,0-1.9.118.031.031,0,0,0-.015,0,18.823,18.823,0,0,0-2.254.46l-.03.009a13.374,13.374,0,0,0-1.807.611,15.221,15.221,0,0,0-1.764.793,11.808,11.808,0,0,0-1.425,1.075.409.409,0,0,0-.042.039q-.2.177-.4.363c-.206.2-.405.4-.6.615-.009.012-.021.024-.03.036a13.573,13.573,0,0,0-.99,1.31c-.154.242-.309.5-.445.756a.526.526,0,0,0-.036.372.059.059,0,0,0,.012.028s0,.006,0,.009a7.993,7.993,0,0,0,.535.78,9.036,9.036,0,0,0,2.657,2.493,6.457,6.457,0,0,0,4.542.863,7.032,7.032,0,0,0,2.666-.975c.054-.033.109-.07.164-.106a6.478,6.478,0,0,0,2.381-3.1A7.018,7.018,0,0,0,358.156,234.628Zm68.06,42.261a7.074,7.074,0,0,0-1.029-3.783,7.358,7.358,0,0,0-2.841-2.638,8.683,8.683,0,0,0-4.161-.972,8.8,8.8,0,0,0-4.218.972,7.231,7.231,0,0,0-2.826,2.638,7.55,7.55,0,0,0,0,7.568,7.232,7.232,0,0,0,2.826,2.639,8.8,8.8,0,0,0,4.218.971,8.682,8.682,0,0,0,4.161-.971,7.308,7.308,0,0,0,2.841-2.654A7.1,7.1,0,0,0,426.216,276.889ZM399.4,266.744H386.9a1.27,1.27,0,0,0-1.27,1.27v17.755a1.27,1.27,0,0,0,1.27,1.27H399.4a1.27,1.27,0,0,0,1.27-1.27v-.476a1.27,1.27,0,0,0-1.27-1.27H388.758v-5.885h9.051a1.27,1.27,0,0,0,1.27-1.27v-.476a1.27,1.27,0,0,0-1.27-1.27h-9.051v-5.364H399.4a1.27,1.27,0,0,0,1.27-1.27v-.475A1.27,1.27,0,0,0,399.4,266.744Zm-23.229,10.19a11.2,11.2,0,0,0-2.565-1,27.631,27.631,0,0,0-3-.609,15.6,15.6,0,0,1-3.842-1.031,2.336,2.336,0,0,1-.1-4.291,7.046,7.046,0,0,1,3.391-.739,7.127,7.127,0,0,1,3.479.827,7.512,7.512,0,0,1,1.639,1.2,1.26,1.26,0,0,0,1.785-.039l.413-.43a1.25,1.25,0,0,0,.041-1.715,7.824,7.824,0,0,0-2.458-1.729,11.5,11.5,0,0,0-4.813-.926,11.343,11.343,0,0,0-4.086.709,6.968,6.968,0,0,0-2.943,2.015,4.73,4.73,0,0,0-1.089,3.131,4.675,4.675,0,0,0,2.031,4.1,12.962,12.962,0,0,0,5.451,1.929,18.785,18.785,0,0,1,4.319,1.043,2.227,2.227,0,0,1,1.446,2.84,1.2,1.2,0,0,1-.236.488,4.6,4.6,0,0,1-2.383,1.471,8.935,8.935,0,0,1-2.45.334,7.842,7.842,0,0,1-4.016-.958,11.248,11.248,0,0,1-2.162-1.671,1.279,1.279,0,0,0-1.9.1l-.443.557a1.268,1.268,0,0,0,.08,1.679,9.7,9.7,0,0,0,3.221,2.181,13.256,13.256,0,0,0,5.073.928,11.907,11.907,0,0,0,4.567-.8,6.7,6.7,0,0,0,2.971-2.248,5.642,5.642,0,0,0,1.045-3.391,4.06,4.06,0,0,0-.667-2.379A5.21,5.21,0,0,0,376.174,276.934ZM341,248.723h0l-.008.057Z" transform="translate(-285.327 -224.482)" fill="#fff"/></svg>