<svg xmlns="http://www.w3.org/2000/svg" class="text-primary-500 w-6 h-6 min-w-6 mr-4" fill="lightblue" stroke="none" viewBox="0 0 24.7 24.7"><path d="M24 3.4c-.4-.4-1-.4-1.3 0L11.5 14.5l-4-4.4c-.3-.4-.9-.4-1.3-.1-.4.3-.4.9-.1 1.3l4.7 5.1c.2.2.4.3.7.3.2 0 .5-.1.7-.3L23.9 4.7c.4-.4.4-1 .1-1.3z"></path><path d="M23.7 11.4c-.5 0-.9.4-.9.9 0 5.8-4.7 10.5-10.5 10.5S1.8 18.1 1.8 12.3 6.5 1.8 12.3 1.8c.5 0 .9-.4.9-.9s-.4-.9-.9-.9C5.5 0 0 5.5 0 12.3s5.5 12.3 12.3 12.3 12.3-5.5 12.3-12.3c.1-.5-.4-.9-.9-.9z"></path></svg>